<?xml version="1.0" encoding="UTF-8" standalone="no"?>
<svg
   xmlns:dc="http://purl.org/dc/elements/1.1/"
   xmlns:cc="http://creativecommons.org/ns#"
   xmlns:rdf="http://www.w3.org/1999/02/22-rdf-syntax-ns#"
   xmlns:svg="http://www.w3.org/2000/svg"
   xmlns="http://www.w3.org/2000/svg"
   xmlns:sodipodi="http://sodipodi.sourceforge.net/DTD/sodipodi-0.dtd"
   xmlns:inkscape="http://www.inkscape.org/namespaces/inkscape"
   version="1.0"
   width="600mm"
   height="400mm"
   id="svg2"
   inkscape:version="0.91 r13725"
   viewBox="0 0 600 400"
   sodipodi:docname="big kid.svg">
  <metadata
     id="metadata131">
    <rdf:RDF>
      <cc:Work
         rdf:about="">
        <dc:format>image/svg+xml</dc:format>
        <dc:type
           rdf:resource="http://purl.org/dc/dcmitype/StillImage" />
        <dc:title />
      </cc:Work>
    </rdf:RDF>
  </metadata>
  <sodipodi:namedview
     pagecolor="#ffffff"
     bordercolor="#666666"
     borderopacity="1"
     objecttolerance="10"
     gridtolerance="10"
     guidetolerance="10"
     inkscape:pageopacity="0"
     inkscape:pageshadow="2"
     inkscape:window-width="1498"
     inkscape:window-height="911"
     id="namedview129"
     inkscape:document-units="mm"
     showgrid="false"
     inkscape:zoom="0.32"
     inkscape:cx="1068.8156"
     inkscape:cy="441.24491"
     inkscape:window-x="0"
     inkscape:window-y="0"
     inkscape:window-maximized="0"
     inkscape:current-layer="svg2"
     inkscape:showpageshadow="false" />
  <defs
     id="defs4">
    <pattern
       id="WMFhbasepattern"
       patternUnits="userSpaceOnUse"
       width="6"
       height="6"
       x="0"
       y="0" />
  </defs>
  <path
     style="fill:none;stroke:#000000;stroke-width:1.51495481px;stroke-linecap:round;stroke-linejoin:miter;stroke-miterlimit:4;stroke-dasharray:none;stroke-opacity:1"
     d="m 107.6156,228.69211 2.66888,8.15353 -0.50042,5.60556"
     id="path7"
     inkscape:connector-curvature="0" />
  <path
     style="fill:none;stroke:#000000;stroke-width:3.02990961px;stroke-linecap:round;stroke-linejoin:miter;stroke-miterlimit:4;stroke-dasharray:none;stroke-opacity:1"
     d="m 74.754969,221.98241 31.025771,0.33987"
     id="path9"
     inkscape:connector-curvature="0" />
  <path
     style="fill:none;stroke:#000000;stroke-width:0.92580569px;stroke-linecap:butt;stroke-linejoin:miter;stroke-miterlimit:4;stroke-dasharray:none;stroke-opacity:1"
     d="m 35.138734,232.85378 1.167636,-0.5096 2.168466,-1.35889 1.501247,-0.42469 1.751454,-0.33987 2.502078,0 2.25187,0.2548 3.336107,1.27399 0.333623,0.16973 0.917428,0.42469 1.417842,1.27399 1.834859,2.37809 1.167635,1.44388"
     id="path11"
     inkscape:connector-curvature="0" />
  <path
     style="fill:#000000;fill-opacity:1;fill-rule:nonzero;stroke:#000000;stroke-width:0.58914906px;stroke-linecap:butt;stroke-linejoin:miter;stroke-miterlimit:4;stroke-dasharray:none;stroke-opacity:1"
     d="m 41.393929,235.9963 0.333625,1.01919 -0.333625,1.61374 -0.583818,0.42465 -0.750624,0.0851 -1.334444,-0.93425 -0.500415,-0.93428 -0.333623,-1.0192 0.333623,-1.61369 0.58382,-0.42469 0.667219,-0.0851 1.417847,1.01919 0.500415,0.84934 z"
     id="path13"
     inkscape:connector-curvature="0" />
  <path
     style="fill:#000000;fill-opacity:1;fill-rule:nonzero;stroke:#000000;stroke-width:0.25249246px;stroke-linecap:butt;stroke-linejoin:miter;stroke-miterlimit:4;stroke-dasharray:none;stroke-opacity:1"
     d="m 50.985228,236.7607 0.16679,0.76439 -1.000831,1.69864 -1.084234,0.67949 -1.084236,0.5945 -1.501247,0.0851 -0.667219,-0.2548 -0.166792,-0.2548 -0.166792,-0.76439 1.084235,-1.69864 1.000832,-0.67945 1.084234,-0.59454 1.501247,-0.16973 0.66722,0.33986 0.166793,0.2548 z"
     id="path15"
     inkscape:connector-curvature="0" />
  <path
     style="fill:none;stroke:#000000;stroke-width:3.02990961px;stroke-linecap:round;stroke-linejoin:miter;stroke-miterlimit:4;stroke-dasharray:none;stroke-opacity:1"
     d="m 31.969433,191.7464 -5.504572,-0.25479 -3.669714,0.25479 -3.169297,1.18905 -2.919094,2.46303"
     id="path17"
     inkscape:connector-curvature="0" />
  <path
     style="fill:none;stroke:#000000;stroke-width:3.70322275px;stroke-linecap:round;stroke-linejoin:miter;stroke-miterlimit:4;stroke-dasharray:none;stroke-opacity:1"
     d="m 66.081099,194.54918 3.502909,0.16973 4.08673,1.01919 3.502909,2.03839 3.252702,3.48222"
     id="path19"
     inkscape:connector-curvature="0" />
  <path
     style="fill:#000000;fill-opacity:1;fill-rule:evenodd;stroke:#000000;stroke-width:0.67331326px;stroke-linecap:butt;stroke-linejoin:miter;stroke-miterlimit:4;stroke-dasharray:none;stroke-opacity:1"
     d="m 39.559072,258.41852 -2.251871,-5.6905 -0.08341,-0.8493 0.250208,-1.69868 0.750623,-1.01919 0.417016,-0.42465 1.084231,-0.84934 1.251039,-0.42465 1.084234,-0.16973 2.335275,-0.33987 1.251039,0.16974 1.167635,0.0851 2.585482,0.50959 1.33444,0.84934 1.918262,1.18905 1.918258,1.52878 1.251039,1.10414 1.668051,1.78359 0.667224,1.10409 0.250208,0.5096 -6.755611,2.37813 -7.673042,2.46303 -1.334439,0.42469 -1.751455,0.42465 -1.334444,-3.05757 z"
     id="path21"
     inkscape:connector-curvature="0" />
  <path
     style="fill:#ffffff;fill-opacity:1;fill-rule:evenodd;stroke:#ffffff;stroke-width:0.42082077px;stroke-linecap:butt;stroke-linejoin:miter;stroke-miterlimit:4;stroke-dasharray:none;stroke-opacity:1"
     d="m 41.644137,257.65413 0.750624,-1.35894 1.000831,-1.27399 0.417012,-0.42465 1.918258,-1.78358 1.084236,-0.33987 1.251039,-0.25479 2.335275,0.0851 1.251039,0.16973 1.417842,0.42469 2.168467,1.61369 1.000831,0.84934 -15.095869,5.09596 0.250207,-1.44384 0.250208,-1.35894 z"
     id="path23"
     inkscape:connector-curvature="0" />
  <path
     style="fill:none;stroke:#000000;stroke-width:1.51495481px;stroke-linecap:round;stroke-linejoin:miter;stroke-miterlimit:4;stroke-dasharray:none;stroke-opacity:1"
     d="m 14.454886,226.73863 -4.003325,6.70969 -1.3344387,2.63293 -0.6672234,2.63288 0.2502078,3.73707 0.9174312,3.99182 1.5846471,3.05757 2.668886,3.73703 2.33527,2.12333 3.419509,2.80278 3.91992,2.46303 3.169299,1.69869 2.085067,0.76438 3.336104,1.8685 4.587141,4.07677 2.25187,2.20827 3.002494,1.8685 2.83569,1.18908 4.170129,0 14.512054,-4.07677 13.344418,-4.50146 14.428648,-7.0494 10.175126,-6.285 3.08589,-2.71787"
     id="path25"
     inkscape:connector-curvature="0" />
  <path
     style="fill:none;stroke:#000000;stroke-width:1.51495481px;stroke-linecap:round;stroke-linejoin:miter;stroke-miterlimit:4;stroke-dasharray:none;stroke-opacity:1"
     d="m 102.61144,248.39646 6.2552,2.12333 3.83652,0.16973 4.75395,-0.84934 3.3361,-1.6137 3.2527,-2.97267 1.91826,-3.99182 0.66722,-3.39732 0.0834,-3.22742 -0.33362,-6.2001 -1.00083,-2.88769 -1.50125,-2.03838 -2.25187,-1.78358 -3.83652,-1.35894 -6.2552,0.33986 -5.08755,2.80278 -1.33445,1.01919"
     id="path27"
     inkscape:connector-curvature="0" />
  <path
     style="fill:none;stroke:#000000;stroke-width:1.51495481px;stroke-linecap:round;stroke-linejoin:miter;stroke-miterlimit:4;stroke-dasharray:none;stroke-opacity:1"
     d="m 108.03261,227.67292 2.75228,-1.10414 4.42035,1.10414 2.08506,3.99182 -0.41701,4.07676 -2.41868,3.90692 -4.50374,3.48223"
     id="path29"
     inkscape:connector-curvature="0" />
  <path
     style="fill:none;stroke:none"
     d="m 121.04341,221.98241 3.58632,-6.87954 4.08673,-8.06859 2.08506,-12.1454 -0.25021,-11.63576 -0.83402,-7.64394 -1.91826,-9.93711 -8.59047,-12.9947 -17.26434,-11.97551 -8.256856,-6.5398 -15.095873,-1.95347 -13.344418,-0.2548 -5.587972,1.69868 -1.751455,0.16973 -5.421172,0 -8.090051,-0.67945 1.251039,0.67945 4.920753,2.29318 4.420337,1.52879 -1.918259,1.10414 -7.839847,2.97263 -7.256026,4.58636 -4.086725,4.58636 -0.834026,4.16172 4.50374,-5.52065 9.257689,-5.60556 7.756442,-1.95344 -6.171791,1.69864 -1.417848,0.33987 -4.170128,3.73702 -6.422,7.30424 0.417013,-0.93429 -4.587145,7.89874 -0.667219,6.96449 4.837351,-6.03021 3.836517,-2.80277 5.838185,-3.90692 5.671376,-1.10414 -1.084231,3.56717 0,1.10414 0.166791,2.37813 0.166792,1.52879 0.417015,0.25479 1.91826,-3.14252 2.668881,-3.90691 1.918262,-1.18905 19.015795,-7.98368 11.843167,2.88773 6.171795,2.03838 1.91826,2.20823 3.002493,2.63293 1.167639,1.27399 0.41701,0.67945 -2.418677,-0.8493 -3.586309,-1.61374 -4.253533,0.33987 3.252702,1.44384 2.835686,2.20828 4.837351,7.04939 5.33777,10.53167 1.00083,9.08778 -2.16847,10.78646 -1.50125,7.04939 -0.58381,5.01102 0,4.58636 0.58381,3.05758 0.1668,2.46307 2.33527,2.46303 3.66971,-2.37813 4.75395,-0.42464 2.75229,0.16973 2.91909,1.86853"
     id="path31"
     inkscape:connector-curvature="0" />
  <path
     style="fill:#000000;fill-opacity:1;stroke:#000000;stroke-width:0.42082077px;stroke-linecap:butt;stroke-linejoin:miter;stroke-miterlimit:4;stroke-dasharray:none;stroke-opacity:1"
     d="m 121.04341,221.98241 3.58632,-6.87954 4.08673,-8.06859 2.08506,-12.1454 -0.25021,-11.63576 -0.83402,-7.64394 -1.91826,-9.93711 -8.59047,-12.9947 -17.26434,-11.97551 -8.256856,-6.5398 -15.095873,-1.95347 -13.344418,-0.2548 -5.587972,1.69868 -1.751455,0.16973 -5.421172,0 -8.090051,-0.67945 1.251039,0.67945 4.920753,2.29318 4.420337,1.52879 -1.918259,1.10414 -7.839847,2.97263 -7.256026,4.58636 -4.086725,4.58636 -0.834026,4.16172 4.50374,-5.52065 9.257689,-5.60556 7.756442,-1.95344 -6.171791,1.69864 -1.417848,0.33987 -4.170128,3.73702 -6.422,7.30424 0.417013,-0.93429 -4.587145,7.89874 -0.667219,6.96449 4.837351,-6.03021 3.836517,-2.80277 5.838185,-3.90692 5.671376,-1.10414 -1.084231,3.56717 0,1.10414 0.166791,2.37813 0.166792,1.52879 0.417015,0.25479 1.91826,-3.14252 2.668881,-3.90691 1.918262,-1.18905 19.015795,-7.98368 11.843167,2.88773 6.171795,2.03838 1.91826,2.20823 3.002493,2.63293 1.167639,1.27399 0.41701,0.67945 -2.418677,-0.8493 -3.586309,-1.61374 -4.253533,0.33987 3.252702,1.44384 2.835686,2.20828 4.837351,7.04939 5.33777,10.53167 1.00083,9.08778 -2.16847,10.78646 -1.50125,7.04939 -0.58381,5.01102 0,4.58636 0.58381,3.05758 0.1668,2.46307 2.33527,2.46303 3.66971,-2.37813 4.75395,-0.42464 2.75229,0.16973 2.91909,1.86853"
     id="path33"
     inkscape:connector-curvature="0" />
  <path
     style="fill:none;stroke:#000000;stroke-width:1.51495481px;stroke-linecap:round;stroke-linejoin:miter;stroke-miterlimit:4;stroke-dasharray:none;stroke-opacity:1"
     d="m 14.538289,226.65372 1.167636,-3.22746 0.166793,-7.559 -2.001663,-6.45489 -1.751456,-4.41647 -1.584647,-4.50146 -0.8340264,-5.18087 -0.1667924,-6.11515 0.6672208,-6.11515 1.834857,-6.03024 9.007481,-13.75909 4.837353,-5.43567 5.83818,-4.33156 1.501247,-1.18909"
     id="path35"
     inkscape:connector-curvature="0" />
  <path
     style="fill:#000000;fill-opacity:1;fill-rule:evenodd;stroke:#000000;stroke-width:0.42082077px;stroke-linecap:butt;stroke-linejoin:miter;stroke-miterlimit:4;stroke-dasharray:none;stroke-opacity:1"
     d="m 50.985228,136.96484 -9.424494,2.12329 -23.102523,11.29606 -5.754779,7.38914 -6.1717925,7.98368 -2.8356906,6.87955 11.0091451,-10.70152 -9.6747014,13.5892 -0.6672188,5.18091 11.7597672,-16.22213 -4.920756,8.91793 0.333623,4.67127 6.505403,-10.10697 2.502078,-4.24662 5.337769,-6.11515 7.339426,-5.52065 3.502909,-4.16168 1.417847,-1.78358 5.671377,-3.73707 4.336935,-1.95343 4.17013,-1.35894 2.418673,-1.35889 -2.085062,-1.10414 -1.668055,0.33986 z"
     id="path37"
     inkscape:connector-curvature="0" />
  <path
     style="fill:none;stroke:#000000;stroke-width:1.59911883px;stroke-linecap:round;stroke-linejoin:miter;stroke-miterlimit:4;stroke-dasharray:none;stroke-opacity:1"
     d="m 14.371486,210.85625 -4.6705481,0.42465 -3.3361017,1.44384 -2.2518702,2.20828 -1.4178484,2.88768 -0.4170109,2.88772 0.1667923,2.97263 0.6672188,2.03839 1.251039,1.52879 1.5846515,2.37812 2.4186736,2.46304 1.5012468,0.93428"
     id="path39"
     inkscape:connector-curvature="0" />
  <path
     style="fill:none;stroke:#000000;stroke-width:1.17829812px;stroke-linecap:round;stroke-linejoin:miter;stroke-miterlimit:4;stroke-dasharray:none;stroke-opacity:1"
     d="m 13.203847,227.92771 -3.5029091,-2.37812 -0.9174281,-1.18905 -0.6672188,-1.18908 -0.1667923,-0.93425 -0.2502078,-1.44384 0.3336232,-1.27399 0.7506235,-1.01919 1.0842358,-0.59454 1.0008316,-0.0851 1.251039,0.0851 1.918257,0.25479 1.751455,0.16974 0.166792,3.31237 -1.000831,2.63293 -1.000831,2.12329 -0.750623,1.52878 z"
     id="path41"
     inkscape:connector-curvature="0" />
  <path
     style="fill:#000000;fill-opacity:1;fill-rule:nonzero;stroke:#000000;stroke-width:1.43079066px;stroke-linecap:butt;stroke-linejoin:miter;stroke-miterlimit:4;stroke-dasharray:none;stroke-opacity:1"
     d="m 18.625019,208.56307 21.267663,2.63288 -1.334442,14.60843 -21.351068,-2.63292 1.417847,-14.60839 z"
     id="path43"
     inkscape:connector-curvature="0" />
  <path
     style="fill:#000000;fill-opacity:1;fill-rule:nonzero;stroke:#000000;stroke-width:1.51495481px;stroke-linecap:butt;stroke-linejoin:miter;stroke-miterlimit:4;stroke-dasharray:none;stroke-opacity:1"
     d="m 53.904321,212.89463 23.519534,1.8685 -0.834027,15.88242 -23.43613,-1.86854 0.750623,-15.88238 z"
     id="path45"
     inkscape:connector-curvature="0" />
  <path
     style="fill:none;stroke:#000000;stroke-width:1.9357754px;stroke-linecap:round;stroke-linejoin:miter;stroke-miterlimit:4;stroke-dasharray:none;stroke-opacity:1"
     d="m 53.904321,221.81256 -5.838184,-3.99186 -4.837353,-0.76439 -5.504572,1.69868"
     id="path47"
     inkscape:connector-curvature="0" />
  <path
     style="fill:none;stroke:#000000;stroke-width:3.11407399px;stroke-linecap:round;stroke-linejoin:miter;stroke-miterlimit:4;stroke-dasharray:none;stroke-opacity:1"
     d="m 20.376474,217.99059 -2.168471,-2.03838 -2.168467,-1.95348"
     id="path49"
     inkscape:connector-curvature="0" />
  <path
     style="fill:#000000;fill-opacity:1;fill-rule:nonzero;stroke:none"
     d="m 153.40363,196.58756 -1.41785,-0.25479 -1.00084,-0.59455 -0.91742,-0.67944 -0.58382,-0.7644 -0.25021,-0.59454 -0.41702,-1.01919 -0.16679,-0.59454 0,-0.5096 0,-44.16495 -0.83403,0.33986 -0.58382,0.2548 -0.58382,0.16973 -0.91742,0.0851 -0.83402,-0.0851 -1.50125,-0.50959 -0.66721,-0.5096 -0.41703,-0.59454 -0.58382,-1.27399 0,-0.67945 0.0834,-1.10414 1.16764,-1.86853 1.16764,-0.76439 1.25102,-0.7644 2.9191,-1.27399 1.66804,-0.50959 3.41952,-1.0192 3.58631,-0.5945 3.5863,-0.42469 2.58549,-0.0851 3.50291,0.0851 6.25519,1.18909 2.8357,1.10409 2.66888,1.27399 4.58714,3.14253 2.00166,1.95343 1.75145,2.03839 2.83569,4.67131 1.08424,2.54798 0.91743,2.71783 1.00083,5.52065 0.0834,2.88768 -0.0834,2.97267 -1.08423,5.77541 -0.91744,2.88772 -1.16764,2.71783 -3.2527,4.92611 -2.08506,2.20824 -1.50124,1.35893 -3.41951,2.37809 -1.83486,0.93429 -3.66972,1.61369 -4.00332,1.18908 -4.08673,0.8493 -4.08673,0.59454 -4.17014,0.5096 -3.91991,0.33987 z m 9.67469,-52.31852 -1.58464,0.0851 -1.66806,0.16973 -1.66805,0.16973 -1.58465,0.2548 0,43.31565 2.83568,-0.33986 3.0025,-0.33987 3.1693,-0.50959 3.0025,-0.67945 2.91909,-0.84934 2.66888,-1.18905 1.25103,-0.67944 2.16848,-1.61374 0.91742,-1.01919 1.50124,-1.69864 2.33528,-3.90691 0.83403,-2.12329 0.75062,-2.20824 0.75062,-4.41651 0.0834,-2.20824 -0.0834,-1.95348 -0.66721,-3.82196 -0.66723,-1.8685 -0.75062,-1.69868 -2.08506,-3.22706 -1.33444,-1.44384 -1.41785,-1.35894 -3.33611,-2.29318 -2.00165,-0.84934 -2.08507,-0.76439 -4.67055,-0.8493 -2.58548,-0.0851 z"
     id="path51"
     inkscape:connector-curvature="0" />
  <path
     style="fill:#000000;fill-opacity:1;fill-rule:nonzero;stroke:none"
     d="m 210.78462,191.57651 -0.0834,1.10414 -0.66721,1.69864 -0.58382,0.59454 -0.58382,0.5096 -1.25104,0.59454 -0.75062,0.0851 -0.66722,-0.0851 -1.25104,-0.5096 -0.58382,-0.50959 -0.50041,-0.5096 -0.75062,-1.61373 -0.16681,-1.0192 -0.0834,-9.34257 -0.16679,-9.59742 0,-9.51243 -0.0834,-9.34262 0.25021,-0.93425 0.83403,-1.44384 0.50041,-0.59454 0.50041,-0.42465 1.25105,-0.5096 0.66721,0 0.58382,0 1.16763,0.42466 0.50043,0.42464 0.58382,0.5096 0.83401,1.35894 0.25022,0.93424 0.0834,9.25768 0,9.59737 0.0834,9.59742 0.0834,9.25763 z m -8.84069,-53.50757 0.0834,-1.01919 0.66722,-1.8685 0.58381,-0.76439 0.75063,-0.67949 1.58465,-0.76439 1.00083,-0.0851 0.91743,0.0851 1.66806,0.76439 0.66721,0.67949 0.66723,0.76439 0.75062,1.8685 0,1.01919 0,1.01919 -0.75062,1.86853 -0.66723,0.7644 -0.66721,0.67944 -1.66806,0.7644 -0.91743,0 -1.00083,0 -1.58465,-0.7644 -0.75063,-0.67944 -0.58381,-0.7644 -0.66723,-1.86853 -0.0834,-1.01919 z"
     id="path53"
     inkscape:connector-curvature="0" />
  <path
     style="fill:#000000;fill-opacity:1;fill-rule:nonzero;stroke:none"
     d="m 225.88048,214.16862 -0.58382,-0.67948 -0.75062,-1.3589 -0.16679,-0.76439 -0.0834,-1.35894 0.41701,-1.18904 0.83403,-1.0192 1.16764,-0.67948 0.75062,-0.16973 1.58466,0.0851 0.91742,0.25479 1.16764,0.59455 0.91742,0.50959 0.83404,0.59454 0.91742,0.42465 0.83403,0.42465 0.91743,0.33987 1.00083,0.33986 1.16764,0.2548 1.83485,0.33986 1.91826,0.0851 2.00167,-0.0851 2.00165,-0.42464 1.91826,-0.59455 1.66806,-0.93424 0.83402,-0.59454 1.41785,-1.44385 0.50042,-0.84934 0.58381,-1.27399 0.1668,-1.61369 0.0834,-1.61373 0,-1.44385 0,-6.36995 -1.50124,0.7644 -1.58465,0.5096 -1.50125,0.50959 -1.66806,0.5096 -2.33526,0.42465 -2.25188,0.16973 -2.33526,0.0851 -2.33527,-0.42465 -2.41869,-0.5096 -4.17012,-2.03838 -1.75146,-1.52879 -1.66805,-1.69868 -2.50207,-3.82197 -1.00084,-2.20823 -0.75062,-2.20824 -0.83403,-4.75626 -0.0834,-2.46303 0,-2.46303 0.83402,-4.75626 0.75064,-2.20823 0.75062,-1.78359 2.00165,-3.22743 1.25105,-1.52878 1.33444,-1.35894 2.91909,-2.37813 1.58464,-0.8493 1.66806,-0.84934 3.50291,-1.01919 1.83485,-0.16973 1.91826,-0.0851 3.66972,0.67945 1.75146,0.76439 2.75229,1.44388 2.58547,1.6137 0.33362,-0.67945 0.75062,-0.93425 0.50043,-0.33986 0.58382,-0.33987 1.08422,-0.25479 0.58382,0.0851 1.16764,0.25479 0.91742,0.67945 0.58382,0.5096 0.75064,1.27399 0.2502,0.84934 0,41.87177 -0.0834,2.54798 -0.75062,4.58636 -0.75062,1.95348 -0.83403,1.86849 -3.00249,3.39732 -2.08506,1.44384 -1.91828,1.18909 -2.08506,0.93424 -2.08506,0.7644 -2.08506,0.33986 -2.33528,0.16973 -4.42034,-0.16973 -2.16845,-0.42533 -2.9191,-0.7644 -2.25186,-1.10413 -2.25188,-1.18905 -2.66888,-1.44384 z m 26.10503,-29.38671 0.417,-0.0851 0.25021,-0.0851 0,-17.666 -0.0834,-0.0851 0,-0.0851 -2.00167,-1.78359 -2.41868,-1.69864 -1.25103,-0.84934 -2.50208,-1.18904 -1.33444,-0.42465 -2.33527,0.16973 -2.33528,0.16973 -0.75062,0.42465 -0.83403,0.42465 -1.58464,0.7644 -1.16764,1.27398 -1.83486,2.54798 -1.33444,2.54798 -0.75063,2.54798 -0.16678,1.27399 -0.0834,2.71788 1.16764,5.69046 1.25105,3.14252 0.50041,0.59454 0.58381,0.5945 0.58382,0.59454 0.50043,0.59455 2.25186,1.01919 4.50374,0.93424 4.42033,-0.50959 4.25354,-1.95344 2.08509,-1.61293 z"
     id="path55"
     inkscape:connector-curvature="0" />
  <path
     style="fill:#000000;fill-opacity:1;fill-rule:nonzero;stroke:none"
     d="m 281.67682,191.57651 -0.0834,1.10414 -0.66723,1.69864 -0.58382,0.59454 -0.58382,0.5096 -1.33444,0.59454 -0.66721,0.0851 -0.66723,-0.0851 -1.25103,-0.5096 -0.58382,-0.50959 -0.58382,-0.5096 -0.66721,-1.61373 -0.2502,-1.0192 -0.0834,-9.34257 -0.0834,-9.59742 0,-9.51243 -0.0834,-9.34262 0.25021,-0.93425 0.75062,-1.44384 0.50041,-0.59454 0.58382,-0.42465 1.16764,-0.5096 0.66721,0 0.66723,0 1.16763,0.42466 0.50041,0.42464 0.58382,0.5096 0.75062,1.35894 0.33364,0.93424 0.0834,9.25768 0,9.59737 0.0834,9.59742 0.0834,9.25763 z m -8.84067,-53.50757 0,-1.01919 0.75062,-1.8685 0.58382,-0.76439 0.66722,-0.67949 1.66805,-0.76439 0.91743,-0.0851 1.00083,0.0851 1.58465,0.76439 0.75063,0.67949 0.66722,0.76439 0.66722,1.8685 0.0834,1.01919 -0.0834,1.01919 -0.66722,1.86853 -0.66722,0.7644 -0.75063,0.67944 -1.58465,0.7644 -1.00083,0 -0.91743,0 -1.66805,-0.7644 -0.66722,-0.67944 -0.58382,-0.7644 -0.75062,-1.86853 0,-1.01919 z"
     id="path57"
     inkscape:connector-curvature="0" />
  <path
     style="fill:#000000;fill-opacity:1;fill-rule:nonzero;stroke:none"
     d="m 294.02041,160.15146 -1.00084,-0.16974 -1.66804,-0.76439 -0.50041,-0.59454 -0.50043,-0.59454 -0.41701,-1.27399 -0.0834,-0.67945 0.0834,-0.67945 0.50042,-1.27399 0.50041,-0.67949 0.58382,-0.5945 1.66806,-0.76439 1.08423,0 5.42117,0 0,-15.54268 0.2502,-0.93428 0.75064,-1.52879 0.50041,-0.5096 0.58381,-0.42465 1.16764,-0.50959 0.66723,-0.0851 0.66721,0.0851 1.16764,0.42465 0.50041,0.42465 0.58382,0.50959 0.75062,1.35894 0.33364,0.84934 0,15.88238 9.25767,0 0.83403,0.25479 1.33444,0.84935 0.50041,0.50959 0.41702,0.59454 0.41701,1.18905 0,0.59454 0,0.67945 -0.50041,1.27399 -0.41701,0.50959 -0.50043,0.5096 -1.50124,0.84934 -0.91742,0.2548 -8.92407,0 -0.0834,7.64394 0.0834,7.98364 0.0834,7.89873 0,7.64394 -0.0834,1.10414 -0.66723,1.69864 -0.58382,0.59454 -0.66723,0.5096 -1.33444,0.59454 -0.66721,0 -0.66723,0 -1.25103,-0.59454 -0.58382,-0.5096 -0.50042,-0.50959 -0.75063,-1.52879 -0.16678,-1.10414 0,-7.72884 -0.0834,-7.98369 0,-15.71252 -5.67137,0 0,0 z"
     id="path59"
     inkscape:connector-curvature="0" />
  <path
     style="fill:#000000;fill-opacity:1;fill-rule:nonzero;stroke:none"
     d="m 359.15785,190.55732 0,0.0851 -0.0836,0 0.25019,0.67949 0.16668,1.27399 -0.16668,0.5945 -0.33372,1.10414 -0.83405,0.76439 -0.834,0.67945 -1.25103,0.2548 -0.66726,0.0851 -1.33441,-0.2548 -0.75062,-0.33987 -0.91746,-0.93424 -0.75062,-0.93425 -0.75062,-1.10414 -0.58379,-1.10413 -2.00167,1.61373 -2.1685,1.52879 -1.0842,0.67945 -2.25187,0.67944 -1.08421,0.0851 -3.83653,0.16974 -3.75311,0 -1.91828,-0.16974 -3.5863,-1.27399 -1.66805,-1.10409 -1.33444,-1.10414 -2.16847,-2.46304 -0.83403,-1.35893 -0.66722,-1.44384 -1.00083,-3.05758 -0.25021,-1.52879 -0.16679,-1.61373 0.0834,-3.31237 0.16681,-1.69864 0.58382,-3.22747 1.08422,-3.14248 0.50041,-1.35894 0.75063,-1.27399 0.75063,-1.27399 0.75063,-1.35893 1.16763,-1.95344 1.25103,-1.69864 1.41784,-1.69868 1.66805,-1.35894 1.25104,-0.93424 1.16764,-0.84934 1.25103,-0.8493 1.25105,-0.84934 1.00083,-0.59454 1.58464,-0.59451 1.91826,-0.59454 1.91824,-0.42465 2.16851,-0.42469 2.00165,-0.0851 2.00167,0.0851 1.58462,0.5096 0.66724,-0.0851 1.33443,0.33986 0.58383,0.42469 0.6672,0.5096 1.00083,1.35889 0.33375,0.93429 0,6.70965 -0.0836,6.79464 0,3.39728 0.41703,6.70969 0.50043,3.39732 0.16666,0.93425 0.50042,1.18904 1.33441,2.37813 0.75063,1.18904 0.58383,1.0192 0.50041,0.84934 0.0836,0.42465 z m -12.2602,-6.7946 0.16668,-0.0851 0.16668,-0.16973 0.0836,-0.0851 0.16667,-0.0851 -0.58382,-2.97263 -0.58381,-6.11515 -0.0836,-3.14252 0.0836,-6.2001 0.0836,-5.43566 -0.83403,0 -1.08424,0.16973 -1.00084,0.2548 -1.08421,0.33986 -0.91745,0.2548 -0.91741,0.33986 -0.66722,0.2548 -0.50042,0.2548 -1.41785,0.67945 -2.41867,1.86853 -1.08423,1.01919 -1.00083,1.1041 -1.66805,2.46307 -0.66723,1.3589 -1.16764,2.71787 -0.75062,3.05758 -0.58382,2.88768 -0.0834,3.05757 0.16679,0.7644 0.25021,0.84934 0.33362,0.76439 0.16679,0.7644 0.50042,0.50959 0.50041,0.59454 0.58382,0.59451 0.58382,0.50959 0.83403,0.33987 0.83402,0.33986 1.75145,0.59454 1.66805,0 1.50126,0.0851 1.58464,0 1.50123,-0.42465 1.41788,-0.93428 1.41783,-1.0192 1.41782,-1.01919 1.33446,-1.1041 z"
     id="path61"
     inkscape:connector-curvature="0" />
  <path
     style="fill:#000000;fill-opacity:1;fill-rule:nonzero;stroke:none"
     d="m 378.09023,190.04772 0.75062,0.67949 1.00083,1.44384 0.2502,0.84934 0.0836,0.7644 -0.2502,1.35889 -0.33374,0.59454 -0.33375,0.59455 -1.16762,0.76439 -0.66721,0.33986 -0.75062,0.16974 -1.75146,-0.2548 -0.91741,-0.42469 -1.75146,-1.18905 -0.83404,-0.59454 -1.00082,-0.5945 -0.75062,-0.76439 -0.417,-0.67949 -0.25022,-0.8493 -0.16668,-1.10414 0,-54.61171 0.16668,-0.93424 0.75063,-1.44385 0.50041,-0.50959 0.5838,-0.42469 1.16765,-0.5096 0.5838,0 0.58382,-0.0851 1.25105,0.42465 0.58383,0.42465 0.50041,0.5096 0.91741,1.35893 0.25022,0.84934 0,52.91303 0.33374,0.2548 0.25021,0.2548 0.83403,0.42465 z"
     id="path63"
     inkscape:connector-curvature="0" />
  <path
     style="fill:#000000;fill-opacity:1;fill-rule:nonzero;stroke:none"
     d="m 427.96499,187.24495 -0.50041,-1.27399 -0.0836,-1.27399 0,-0.7644 0.50041,-1.35889 0.417,-0.5096 0.58383,-0.5096 1.33446,-0.50959 0.75062,-0.0851 0.75062,0.0851 1.50126,0.50959 0.6672,0.5096 1.75145,1.86849 2.00167,1.44388 2.25187,1.18905 2.41867,0.93424 2.50207,0.59455 2.50208,0.33986 2.58549,0.2548 2.41867,0.0851 1.50124,-0.5096 0.75062,-0.16973 0.58384,-0.2548 0.417,-0.16973 0.41703,-0.2548 0.50042,-0.33986 0.58379,-0.5096 1.25103,-0.84934 0.41705,-0.67945 0.417,-0.59454 0.417,-0.5945 0.50041,-0.67949 0.83405,-2.71783 0,-1.27399 0,-0.67945 -0.0836,-0.76439 -0.25021,-0.67949 -0.25022,-0.5945 -0.58379,-1.35894 -0.58383,-0.67944 -0.58383,-0.59455 -0.50041,-0.59454 -0.50041,-0.67945 -0.91743,-0.50959 -0.83403,-0.59454 -0.91742,-0.5096 -1.00082,-0.42465 -3.91991,-1.18904 -3.41954,-0.67949 -3.2527,-0.5945 -3.0025,-0.7644 -1.41782,-0.42469 -2.75229,-1.35889 -1.33446,-0.84934 -1.33441,-0.93425 -2.50208,-2.88772 -1.25104,-1.86853 -0.41705,-0.7644 -0.16666,-0.42465 -0.16668,-0.50959 -0.0836,-0.84934 -0.0836,-0.7644 -0.0836,-0.76439 0,-1.44384 0.0836,-1.69864 0.16668,-1.44388 0.50041,-1.3589 0.58379,-1.27399 0.75062,-1.27399 1.00083,-1.27399 1.08426,-1.44388 1.41782,-1.52879 1.75146,-1.69864 2.00167,-1.18904 2.16848,-1.10414 2.25188,-0.67945 2.33525,-0.59454 2.4187,-0.2548 2.50208,-0.2548 2.33524,-0.0851 1.33446,0 0.66721,0.0851 0.66724,0.0851 2.16846,0.2548 2.00165,0.76439 2.00167,0.8493 2.08508,0.67949 1.08421,0.7644 1.08424,1.95343 0.0836,1.10414 -0.0836,0.67945 -0.58383,1.35894 -0.50041,0.5945 -0.5838,0.50959 -1.50125,0.5096 -1.00083,0.0851 -0.50041,0 -0.16668,-0.0851 -0.16666,0 -3.00238,-0.93429 -2.50208,-0.59454 -2.33529,-0.42465 -2.16846,-0.16973 -2.33527,0.16973 -2.41867,0.67945 -2.50208,0.93429 -3.08591,1.69863 -0.58379,0.7644 -0.58383,0.67945 -0.58384,0.59454 -0.58379,0.67945 -0.58383,1.18908 -0.33375,1.18904 0,1.18905 0.0836,0.59454 0.0836,0.5096 0.33373,0.50959 0.33375,0.42465 0.33374,0.5096 0.33375,0.50959 4.08673,2.37813 2.83571,0.59454 2.50208,0.5945 2.50208,0.5096 2.33524,0.67949 2.33528,0.5945 2.16845,0.84934 2.4187,1.01919 2.50208,1.35894 1.33443,0.8493 1.00083,1.18908 0.91746,1.18905 0.91741,1.10413 0.75062,0.93425 1.08424,2.12333 0.417,1.18904 0.58384,2.37813 0.16668,2.46303 -0.0836,1.78359 -0.66721,3.48223 -0.58384,1.61373 -0.75062,1.69864 -1.91824,2.71787 -1.25105,1.1041 -0.83403,0.76439 -0.91743,0.7644 -1.75144,1.18908 -2.16845,1.18904 -2.41872,0.84934 -2.50208,0.59451 -2.75227,0.0851 -3.16929,-0.0851 -3.33611,-0.67945 -3.08588,-0.7644 -3.08592,-1.18904 -2.8357,-1.44388 -2.58545,-1.69864 -2.4187,-1.86853 -1.83482,-2.03839 z"
     id="path65"
     inkscape:connector-curvature="0" />
  <path
     style="fill:#000000;fill-opacity:1;fill-rule:nonzero;stroke:none"
     d="m 512.53523,215.01792 -0.0836,1.01919 -0.58383,1.61374 -0.58379,0.59454 -0.58383,0.5945 -1.25104,0.59454 -0.75062,0 -0.66721,0 -1.25105,-0.50959 -0.66724,-0.42465 -0.58379,-0.59454 -0.66724,-1.52879 -0.16668,-1.10414 0,-22.25233 -1.75146,0.5945 -3.50291,0.84935 -1.75144,0.16973 -2.08509,0.16973 -2.50208,-0.0851 -2.41866,-0.2548 -2.00166,-0.5096 -2.41866,-0.76439 -3.83653,-2.37813 -1.50125,-1.69864 -1.25104,-1.69864 -1.83487,-3.90691 -0.5838,-2.12333 -0.41703,-2.20824 -0.16668,-4.58636 0.25021,-2.37813 0.33375,-2.37809 1.08419,-4.50145 0.75064,-2.03839 0.66724,-1.52879 1.83484,-2.71783 1.08424,-1.18904 1.25103,-1.10414 2.66888,-1.78358 1.50125,-0.7644 1.50124,-0.67945 3.08591,-1.01919 1.66804,-0.33986 1.66807,-0.2548 3.2527,-0.16973 1.50126,0.0851 1.58462,0.2548 2.8357,0.76439 1.33446,0.59454 0.75062,-0.50959 1.66803,-0.16974 0.91743,0.2548 0.91745,0.42465 1.33441,1.61374 0.41705,1.27399 0,58.68843 0,0 z m -24.10336,-29.81136 2.08508,0.7644 4.17011,0.76439 2.08508,-0.0851 2.08505,-0.16973 3.91994,-1.27399 1.91824,-1.1041 0,-22.33731 -0.417,-0.2548 -0.16666,-0.42465 -1.16764,-0.42465 -2.50208,-0.59455 -1.33444,-0.16973 -1.33442,0 -2.58549,0.2548 -1.25105,0.2548 -1.16762,0.42465 -2.16848,1.10414 -1.08422,0.76439 -1.00083,0.84934 -1.58465,1.95344 -0.66722,1.18904 -0.75062,1.69868 -0.83405,3.48223 -0.0836,1.86853 0.0836,3.65208 0.50043,3.56717 0.417,0.59454 0.2502,0.67945 0.41704,0.59454 0.417,0.67945 0.83403,0.93428 0.50043,0.33987 0.417,0.42465 z"
     id="path67"
     inkscape:connector-curvature="0" />
  <path
     style="fill:#000000;fill-opacity:1;fill-rule:nonzero;stroke:none"
     d="m 524.87879,160.49116 -1.33441,-0.76439 -0.83403,-1.1041 -0.50043,-1.01919 -0.16666,-1.10414 0.0836,-0.7644 0.50041,-1.27399 0.5004,-0.50959 0.58384,-0.59454 1.41783,-0.5945 0.91746,0 1.41783,0.16973 1.91825,0.76439 1.91829,1.01919 1.25103,1.18905 3.08586,-2.37813 3.08592,-1.86849 1.58467,-0.7644 3.2527,-0.84934 1.66803,-0.0851 1.08426,0.0851 1.66803,0.42465 1.83488,0.59454 1.75144,0.93425 1.75146,1.01919 1.41783,1.52879 0.58383,0.76439 0.75063,1.86854 0,1.01919 0,0.76439 -0.58384,1.35894 -0.417,0.5945 -0.58383,0.42469 -1.33446,0.50959 -0.75062,0.0851 -1.00082,-0.16973 -0.91742,-0.42469 -0.75063,-0.67945 -0.83403,-0.76439 -0.834,-0.67945 -0.91745,-0.67949 -0.91743,-0.50959 -1.08424,-0.0851 -1.41784,0.16973 -1.58465,0.76439 -1.58462,0.84934 -1.58467,1.10414 -1.58467,1.18905 -1.41782,1.35893 -1.41783,1.3589 -1.08425,1.10414 0,26.15924 -0.0836,1.10414 -0.75062,1.61373 -0.50041,0.5945 -0.66721,0.59454 -1.25103,0.59455 -0.75062,0 -0.66721,0 -1.25104,-0.59455 -0.58383,-0.42464 -0.50043,-0.59455 -0.75062,-1.52878 -0.16666,-1.10414 0,-26.83869 0,-0.16974 -0.0836,-0.16973 0,-0.50959 0,-0.42469 0.0836,-0.2548 0,-0.2548 0,-2.80278 -0.33375,-0.16973 -0.33374,-0.16973 z"
     id="path69"
     inkscape:connector-curvature="0" />
  <path
     style="fill:#000000;fill-opacity:1;fill-rule:nonzero;stroke:none"
     d="m 567.24733,160.15146 -1.00084,-0.16974 -1.58465,-0.76439 -0.58379,-0.59454 -0.50042,-0.59454 -0.41703,-1.27399 -0.0836,-0.67945 0.0836,-0.67945 0.5004,-1.27399 0.50041,-0.67949 0.58384,-0.5945 1.75145,-0.76439 1.00084,0 5.42115,0 0,-15.54268 0.25022,-0.93428 0.75062,-1.52879 0.50041,-0.5096 0.58383,-0.42465 1.16762,-0.50959 0.66725,-0.0851 0.66721,0.0851 1.16762,0.42465 0.50041,0.42469 0.58384,0.50959 0.83404,1.3589 0.25022,0.84934 0,15.88242 9.25767,0 0.834,0.25479 1.33446,0.84931 0.50042,0.50959 0.417,0.59454 0.41703,1.18905 0,0.59454 0,0.67945 -0.50041,1.27399 -0.41704,0.50959 -0.50041,0.5096 -1.50125,0.84934 -0.91742,0.2548 -8.92405,0 -0.0836,7.64394 0.0836,7.98368 0.0836,7.89873 0,7.64394 -0.0836,1.1041 -0.66726,1.69868 -0.58379,0.5945 -0.66724,0.5096 -1.25105,0.59454 -0.6672,0 -0.66721,0 -1.25105,-0.59454 -0.66724,-0.5096 -0.50041,-0.50959 -0.75062,-1.52879 -0.16668,-1.1041 0,-7.72888 -0.0836,-7.98369 0,-15.71252 -5.67137,0 0,0 z"
     id="path71"
     inkscape:connector-curvature="0" />
  <path
     style="fill:#000000;fill-opacity:1;fill-rule:nonzero;stroke:none"
     d="m 200.44268,248.39646 0.50043,0 0.2502,0.25479 0.33362,0.33987 0.0834,0.33986 0,0.33987 -0.25021,0.33986 -0.25021,0.33987 -0.417,0.16973 -1.25105,0 -1.25103,0.0851 -1.25105,-0.0851 -1.25103,0 -0.41701,-0.0851 -0.33363,-0.2548 -0.16678,-0.33986 -0.0834,-0.42465 0.0834,-0.33987 0.25019,-0.33986 0.33363,-0.2548 0.41701,-0.0851 0.75062,0 0.33364,0 0.33362,0 0,-11.38096 -1.50124,0 -0.50043,-0.0851 -0.25021,-0.2548 -0.2502,-0.33986 0,-0.42469 0.0834,-0.33987 0.16679,-0.33986 0.33363,-0.2548 0.50041,-0.0851 4.92075,0 0.41702,0.16973 0.25021,0.33986 0.16679,0.2548 0,0.33987 0,0.33986 -0.25022,0.33987 -0.25019,0.25479 -0.41702,0.0851 -1.41785,0 0,11.46591 0.58382,0 0.33362,-0.0851 0.33362,0 z"
     id="path73"
     inkscape:connector-curvature="0" />
  <path
     style="fill:#000000;fill-opacity:1;fill-rule:nonzero;stroke:none"
     d="m 205.69705,241.43201 -0.50041,-0.0851 -0.25021,-0.2548 -0.25021,-0.33987 0,-0.33986 0,-0.42469 0.25021,-0.33987 0.33362,-0.25479 0.50041,-0.0851 1.33444,0 0,-4.07677 0.16681,-0.5096 0.16678,-0.33986 0.33363,-0.16973 0.33362,-0.0851 0.25021,0.0851 0.2502,0.16973 0.33363,0.2548 0.0834,0.50959 0,4.16172 2.33527,0 0.41702,0.16973 0.2502,0.2548 0.1668,0.33986 0,0.33986 0,0.33987 -0.25021,0.2548 -0.25022,0.25479 -0.417,0.16974 -2.25188,0 0,2.03838 0,2.12333 0.0834,2.12329 0,1.95348 -0.0834,0.5945 -0.25019,0.33986 -0.33364,0.2548 -0.33362,0.0851 -0.33362,-0.0851 -0.33363,-0.2548 -0.25021,-0.33986 -0.0834,-0.5096 0,-2.03838 0,-2.12329 0,-4.16171 -1.41785,0 0,0 z"
     id="path75"
     inkscape:connector-curvature="0" />
  <path
     style="fill:#000000;fill-opacity:1;fill-rule:nonzero;stroke:none"
     d="m 213.78711,233.95792 0.0834,-0.5096 0.25021,-0.33986 0.33363,-0.16973 0.25021,-0.0851 0.33362,0.0851 0.25021,0.16973 0.2502,0.2548 0.1668,0.50959 0,3.90692 -0.0834,0.5945 -0.2502,0.33986 -0.25021,0.2548 -0.41702,0 -0.25019,0 -0.33364,-0.2548 -0.2502,-0.33986 -0.0834,-0.5096 0,-3.90687 0,0 z"
     id="path77"
     inkscape:connector-curvature="0" />
  <path
     style="fill:#000000;fill-opacity:1;fill-rule:nonzero;stroke:none"
     d="m 217.70703,248.7362 -0.1668,-0.5096 0,-0.33986 0.0834,-0.33986 0.16678,-0.2548 0.25022,-0.16973 0.33362,-0.0851 0.41701,0.0851 0.33363,0.25479 0.58381,0.67945 0.75063,0.42469 0.75062,0.42465 0.83403,0.0851 0.50041,-0.16973 0.1668,-0.0851 0.0834,-0.0851 0.0834,-0.0851 0,0 0.0834,-0.0851 0.0834,-0.0851 0.0834,-0.0851 0.0834,-0.16973 0.0834,-0.0851 0,-0.0851 0,-0.16973 0.0834,-0.0851 0,-0.2548 0,-0.0851 0,-0.16973 -0.16679,-0.42465 0,-0.0851 -0.1668,-0.16973 -0.0834,-0.16973 -0.58382,-0.42469 -0.66721,-0.16973 -0.58383,-0.16973 -0.58381,-0.16974 -0.50042,-0.25479 -0.58382,-0.33987 -0.50041,-0.33986 -0.50042,-0.67945 -0.33362,-0.59454 -0.16679,-0.7644 0.0834,-0.8493 0.16681,-0.76439 0.33362,-0.76439 0.50041,-0.59455 0.58382,-0.50959 0.66722,-0.2548 1.00084,-0.16973 1.00082,0.16973 1.00083,0.2548 0.91743,0.42465 0.41701,0.33986 0.0834,0.42469 0.0834,0.42465 -0.16679,0.33987 -0.1668,0.25479 -0.417,0.16974 -0.33364,0.0851 -0.50041,-0.16974 -0.58382,-0.33986 -0.58381,-0.0851 -0.66723,-0.0851 -0.58381,0.0851 -0.0834,0 -0.0834,0 -0.0834,0.0851 -0.0834,0 -0.25022,0.33986 -0.16678,0.33987 -0.0834,0.2548 0,0.42465 0.0834,0.16973 0.0834,0.16973 0.0834,0.0851 0,0.0851 0.0834,0.0851 0.0834,0.0851 0.58382,0.33986 0.66722,0.2548 0.66722,0.16973 0.66722,0.2548 0.66722,0.2548 0.50041,0.42469 0.50043,0.42465 0.41701,0.67945 0.2502,0.76439 0.0834,1.35894 -0.16681,0.67944 -0.25019,0.59454 -0.83404,1.0192 -0.50041,0.42465 -0.33363,0.25479 -0.41702,0.0851 -0.33362,0.16973 -0.33362,0 -1.25123,-0.0851 -1.25105,-0.5096 -1.16764,-0.76439 -0.83401,-1.0192 z"
     id="path79"
     inkscape:connector-curvature="0" />
  <path
     style="fill:#000000;fill-opacity:1;fill-rule:nonzero;stroke:none"
     d="m 237.22323,241.43201 -0.41701,-0.0851 -0.33362,-0.2548 -0.2502,-0.33987 0,-0.33986 0.0834,-0.42465 0.16679,-0.33987 0.33362,-0.25479 0.50043,-0.0851 1.33444,0 0,-4.07677 0.16679,-0.5096 0.25021,-0.33986 0.2502,-0.16973 0.33363,-0.0851 0.2502,0.0851 0.33362,0.16973 0.25021,0.2548 0.16679,0.50959 0,4.16168 2.25188,0 0.41702,0.16973 0.2502,0.2548 0.1668,0.33986 0.0834,0.33986 -0.0834,0.33987 -0.1668,0.2548 -0.33363,0.25479 -0.417,0.16974 -2.16847,0 -0.0834,2.03838 0.0834,2.12333 0,2.12333 0,1.95344 -0.0834,0.59454 -0.2502,0.33986 -0.33364,0.2548 -0.33362,0.0851 -0.33362,-0.0851 -0.25021,-0.2548 -0.2502,-0.33986 -0.1668,-0.5096 0,-2.03838 0,-2.12333 0,-4.16171 -1.41784,0 0,0 z"
     id="path81"
     inkscape:connector-curvature="0" />
  <path
     style="fill:#000000;fill-opacity:1;fill-rule:nonzero;stroke:none"
     d="m 247.81537,249.84034 -0.0834,0.50959 -0.25021,0.33987 -0.25021,0.2548 -0.33363,0 -0.33362,0 -0.33362,-0.2548 -0.25021,-0.2548 -0.0834,-0.50959 0,-14.52349 0.0834,-0.42469 0.25021,-0.33986 0.25021,-0.16974 0.33362,-0.0851 0.25022,0 0.33362,0.2548 0.2502,0.2548 0.1668,0.42469 0,6.11515 0.33362,-0.33986 0.33362,-0.2548 0.50041,-0.33986 0.41702,-0.2548 0.41701,-0.16974 0.50043,-0.16973 0.417,-0.0851 0.50042,0 0.417,0.0851 0.41702,0.16973 0.66723,0.2548 0.58382,0.5096 0.5004,0.5096 0.33363,0.67944 0.33363,0.67945 0.16679,0.76439 0.16679,0.7644 0.0834,0.76439 0,1.27399 0,1.18909 0,1.18904 0,1.27399 -0.0834,0.50959 -0.25021,0.33987 -0.2502,0.2548 -0.41702,0.0851 -0.25021,-0.0851 -0.33362,-0.16973 -0.25021,-0.33987 -0.16679,-0.50959 0,-2.46304 0,-1.18908 0,-1.27399 -0.0834,-0.93425 -0.25021,-0.76439 -0.33362,-0.76439 -0.66721,-0.5096 -0.58382,-0.16973 -0.58382,0.16973 -0.41701,0.16973 -0.50041,0.42469 -0.33364,0.33986 -0.417,0.5096 -0.33362,0.5096 -0.33364,0.42465 -0.0834,0.0851 -0.0834,0.0851 0,0.0851 -0.0834,0 0,5.09596 0,0 z"
     id="path83"
     inkscape:connector-curvature="0" />
  <path
     style="fill:#000000;fill-opacity:1;fill-rule:nonzero;stroke:none"
     d="m 265.41332,247.54716 0.50041,-0.0851 0.33362,0.0851 0.33362,0.16973 0.16681,0.2548 0.16678,0.42465 -0.0834,0.33986 -0.1668,0.42465 -0.41702,0.33986 -0.75062,0.42466 -0.91743,0.42468 -0.91742,0.42465 -0.91743,0.16974 -0.91742,0.0851 -0.91744,-0.0851 -0.91743,-0.2548 -0.83403,-0.5096 -0.91742,-0.8493 -0.58382,-1.18908 -0.41702,-1.3589 -0.16678,-1.35893 0.0834,-1.35894 0.41702,-1.27399 0.58381,-1.27399 0.91744,-0.8493 1.16763,-0.76439 1.25104,-0.42469 1.25103,-0.33987 1.33446,0.2548 0.66721,0.16973 0.50041,0.5096 0.50043,0.50959 0.33362,0.59455 0.25021,0.67944 0.0834,0.7644 0,0.67949 -0.33362,0.67944 -0.41702,0.67945 -0.75062,0.59454 -0.75062,0.5096 -0.91743,0.33986 -0.83403,0.33987 -0.91743,0.2548 -0.83403,0.25479 -0.75062,0.16974 -0.25021,0.0851 -0.25021,-0.0851 0.41701,0.84934 0.58382,0.5945 0.83403,0.42469 0.91743,0 0.83403,-0.16973 0.83403,-0.33987 0.83402,-0.42469 0.75062,-0.50959 z m -4.67055,-5.52065 -0.75062,0.59454 -0.50041,0.84934 -0.41702,0.8493 -0.0834,1.01919 0.1668,-0.16973 0.2502,-0.0851 0.83403,-0.2548 0.41702,-0.16973 0.50041,-0.0851 0.33362,-0.0851 0.41701,-0.16973 0.50043,-0.16973 0.50041,-0.16973 0.50041,-0.2548 0.50042,-0.2548 0.33362,-0.2548 0.25022,-0.33986 -0.0834,-0.76439 -0.33362,-0.42465 -0.41702,-0.2548 -0.58381,-0.0851 -0.66722,0.0851 -0.58382,0.16973 -0.58382,0.2548 -0.50042,0.16973 z"
     id="path85"
     inkscape:connector-curvature="0" />
  <path
     style="fill:#000000;fill-opacity:1;fill-rule:nonzero;stroke:none"
     d="m 279.67517,249.33074 0.41701,0.42465 0.0834,0.42465 0.0834,0.33987 -0.1668,0.33986 -0.16679,0.33987 -0.41701,0.0851 -0.33363,0.0851 -0.50041,-0.16973 -0.41701,-0.33986 -0.16679,-0.16973 -0.25021,-0.0851 -0.16679,-0.2548 -0.1668,-0.16973 0,-0.2548 -0.0834,-0.2548 0,-14.43854 0.0834,-0.50959 0.25021,-0.2548 0.33362,-0.2548 0.25021,0 0.33363,0 0.25021,0.16973 0.2502,0.2548 0.1668,0.5096 0,14.01389 0.0834,0 0.0834,0.0851 0.16679,0.0851 z"
     id="path87"
     inkscape:connector-curvature="0" />
  <path
     style="fill:#000000;fill-opacity:1;fill-rule:nonzero;stroke:none"
     d="m 284.76272,249.75539 0,0.59454 -0.33362,0.33987 -0.2502,0.2548 -0.33364,0 -0.33362,0 -0.33362,-0.2548 -0.25021,-0.33987 -0.0834,-0.50959 0,-2.46308 -0.0834,-2.54798 0,-2.46303 0,-2.46303 0.16678,-0.5096 0.25022,-0.33986 0.25019,-0.16973 0.33363,-0.0851 0.25021,0.0851 0.33362,0.16973 0.25021,0.2548 0.16679,0.50959 0,2.46304 0,2.46303 0,2.54798 0,2.46307 z m -2.16846,-14.09883 0.0834,-0.5945 0.25021,-0.42469 0.33362,-0.33987 0.50041,-0.0851 0.41701,0.0851 0.41702,0.33987 0.25021,0.42469 0.0834,0.5945 -0.0834,0.5096 -0.25021,0.42468 -0.41702,0.33987 -0.41701,0 -0.50041,0 -0.33362,-0.33987 -0.25021,-0.42468 -0.0834,-0.5096 z"
     id="path89"
     inkscape:connector-curvature="0" />
  <path
     style="fill:#000000;fill-opacity:1;fill-rule:nonzero;stroke:none"
     d="m 287.84861,241.43201 -0.50041,-0.0851 -0.33362,-0.2548 -0.16678,-0.33987 -0.0834,-0.33986 0.0834,-0.42469 0.16678,-0.33987 0.33362,-0.25479 0.50041,-0.0851 1.33444,0 0,-4.07677 0.16681,-0.5096 0.25019,-0.33986 0.25022,-0.16973 0.33362,-0.0851 0.33362,0.0851 0.25021,0.16973 0.25022,0.2548 0.16678,0.50959 0,4.16172 2.25187,0 0.41701,0.16973 0.25022,0.2548 0.16678,0.33986 0.0834,0.33986 -0.0834,0.33987 -0.16678,0.2548 -0.25022,0.25479 -0.5004,0.16974 -2.16848,0 0,2.03838 0,2.12333 0,2.12329 0,1.95348 0,0.5945 -0.33362,0.33986 -0.33362,0.2548 -0.33362,0.0851 -0.25021,-0.0851 -0.33363,-0.2548 -0.25021,-0.33986 -0.0834,-0.5096 0,-2.03838 -0.0834,-2.12329 0,-4.16171 -1.33444,0 0,0 z"
     id="path91"
     inkscape:connector-curvature="0" />
  <path
     style="fill:#000000;fill-opacity:1;fill-rule:nonzero;stroke:none"
     d="m 297.02291,241.43201 -0.50042,-0.0851 -0.2502,-0.2548 -0.25021,-0.33987 0,-0.33986 0,-0.42469 0.25021,-0.33987 0.33362,-0.25479 0.50041,-0.0851 1.33444,0 0,-4.07677 0.16679,-0.5096 0.25021,-0.33986 0.25021,-0.16973 0.33362,-0.0851 0.2502,0.0851 0.33364,0.16973 0.2502,0.2548 0.1668,0.50959 0,4.16172 2.25186,0 0.41702,0.16973 0.25021,0.2548 0.16679,0.33986 0.0834,0.33986 -0.0834,0.33987 -0.16679,0.2548 -0.33363,0.25479 -0.417,0.16974 -2.16848,0 -0.0834,2.03838 0.0834,2.12333 0,2.12329 0,1.95348 -0.0834,0.5945 -0.2502,0.33986 -0.33362,0.2548 -0.33364,0.0851 -0.33362,-0.0851 -0.2502,-0.2548 -0.25021,-0.33986 -0.16679,-0.5096 0,-2.03838 0,-2.12329 0,-4.16171 -1.41785,0 0,0 z"
     id="path93"
     inkscape:connector-curvature="0" />
  <path
     style="fill:#000000;fill-opacity:1;fill-rule:nonzero;stroke:none"
     d="m 308.19886,249.33074 0.33362,0.42465 0.16679,0.42465 0,0.33987 -0.16679,0.33986 -0.1668,0.33987 -0.33362,0.0851 -0.417,0.0851 -0.41702,-0.16973 -0.41701,-0.33986 -0.25022,-0.16973 -0.25021,-0.0851 -0.16679,-0.2548 -0.0834,-0.16973 -0.0834,-0.2548 -0.0834,-0.2548 0,-14.43854 0.16679,-0.50959 0.25021,-0.2548 0.2502,-0.2548 0.33363,0 0.2502,0 0.33362,0.16973 0.25021,0.2548 0.16679,0.5096 0,14.01389 0.0834,0 0.0834,0.0851 0.1668,0.0851 z"
     id="path95"
     inkscape:connector-curvature="0" />
  <path
     style="fill:#000000;fill-opacity:1;fill-rule:nonzero;stroke:none"
     d="m 318.79099,247.54716 0.50041,-0.0851 0.41702,0.0851 0.33362,0.16973 0.16679,0.2548 0.0834,0.42465 -0.0834,0.33986 -0.16679,0.42465 -0.33362,0.33986 -0.83403,0.4247 -0.91743,0.42464 -0.83403,0.42465 -1.00082,0.16974 -0.91744,0.0851 -0.91743,-0.0851 -0.83403,-0.2548 -0.83401,-0.5096 -0.91744,-0.8493 -0.66722,-1.18908 -0.41701,-1.3589 -0.0834,-1.35893 0,-1.35894 0.417,-1.27399 0.58384,-1.27399 1.00082,-0.8493 1.08424,-0.76439 1.25103,-0.42469 1.33444,-0.33987 1.25105,0.2548 0.66721,0.16973 0.50043,0.5096 0.50041,0.50959 0.33362,0.59455 0.33362,0.67944 0.0834,0.7644 -0.0834,0.67949 -0.2502,0.67944 -0.50042,0.67945 -0.66721,0.59454 -0.83404,0.5096 -0.83403,0.33986 -0.91745,0.33987 -0.91743,0.2548 -0.83401,0.25479 -0.66723,0.16974 -0.33362,0.0851 -0.25022,-0.0851 0.41702,0.84934 0.66723,0.5945 0.75062,0.42469 1.00083,0 0.83402,-0.16973 0.83403,-0.33987 0.83403,-0.42469 0.66722,-0.50959 z m -4.58715,-5.52065 -0.83402,0.59454 -0.50043,0.84934 -0.33362,0.8493 -0.0834,1.01919 0.16679,-0.16973 0.16678,-0.0851 0.83403,-0.2548 0.50043,-0.16973 0.417,-0.0851 0.33364,-0.0851 0.417,-0.16973 0.58382,-0.16973 0.50042,-0.16973 0.50041,-0.2548 0.41702,-0.2548 0.41701,-0.2548 0.16679,-0.33986 0,-0.76439 -0.41702,-0.42465 -0.41701,-0.2548 -0.58382,-0.0851 -0.58382,0.0851 -0.66721,0.16973 -0.58382,0.2548 -0.41702,0.16973 z"
     id="path97"
     inkscape:connector-curvature="0" />
  <path
     style="fill:#000000;fill-opacity:1;fill-rule:nonzero;stroke:none"
     d="m 331.8852,241.43201 -0.50042,-0.0851 -0.33363,-0.2548 -0.16678,-0.33987 -0.0834,-0.33986 0.0834,-0.42469 0.25021,-0.33987 0.2502,-0.25479 0.58381,-0.0851 1.33444,0 0,-4.07677 0.0834,-0.5096 0.2502,-0.33986 0.25021,-0.16973 0.33362,-0.0851 0.33362,0.0851 0.25021,0.16973 0.25022,0.2548 0.16679,0.50959 0,4.16172 2.25186,0 0.41702,0.16973 0.25021,0.2548 0.25021,0.33986 0,0.33986 -0.0834,0.33987 -0.16679,0.2548 -0.25021,0.25479 -0.41702,0.16974 -2.25186,0 0,2.03838 0,2.12333 0,2.12329 0,1.95348 0,0.5945 -0.33363,0.33986 -0.33362,0.2548 -0.25021,0.0851 -0.33362,-0.0851 -0.33362,-0.2548 -0.25022,-0.33986 -0.0834,-0.5096 0,-2.03838 0,-2.12329 0,-4.16171 -1.41785,0 0,0 z"
     id="path99"
     inkscape:connector-curvature="0" />
  <path
     style="fill:#000000;fill-opacity:1;fill-rule:nonzero;stroke:none"
     d="m 342.39392,249.84034 0,0.50959 -0.25021,0.33987 -0.33375,0.2548 -0.33373,0 -0.33374,0 -0.33362,-0.2548 -0.25021,-0.2548 -0.0834,-0.50959 0,-14.52349 0.0834,-0.42469 0.25021,-0.33986 0.33362,-0.16974 0.25021,-0.0851 0.33373,0 0.25021,0.2548 0.25022,0.2548 0.16666,0.42469 0,6.11515 0.417,-0.33986 0.25021,-0.2548 0.50041,-0.33986 0.41705,-0.2548 0.417,-0.16974 0.58383,-0.16973 0.417,-0.0851 0.417,0 0.41704,0.0851 0.50042,0.16973 0.6672,0.2548 0.50042,0.5096 0.50041,0.5096 0.33375,0.67944 0.33374,0.67945 0.2502,0.76439 0.0836,0.7644 0.0836,0.76439 0,1.27399 0,1.18909 0,1.18904 0,1.27399 -0.0836,0.50959 -0.16667,0.33987 -0.33374,0.2548 -0.33375,0.0851 -0.33373,-0.0851 -0.33374,-0.16973 -0.25021,-0.33987 -0.0836,-0.50959 0,-2.46304 0,-1.18908 0,-1.27399 -0.0836,-0.93425 -0.25021,-0.76439 -0.417,-0.76439 -0.66725,-0.5096 -0.58379,-0.16973 -0.50042,0.16973 -0.50041,0.16973 -0.41705,0.42465 -0.417,0.33986 -0.33373,0.5096 -0.417,0.5096 -0.33374,0.42469 0,0.0851 -0.0836,0.0851 -0.0836,0.0851 -0.0836,0 0,5.09596 0,0 z"
     id="path101"
     inkscape:connector-curvature="0" />
  <path
     style="fill:#000000;fill-opacity:1;fill-rule:nonzero;stroke:none"
     d="m 354.57069,249.75539 -0.0836,0.59454 -0.25021,0.33987 -0.33375,0.2548 -0.33374,0 -0.33373,0 -0.25021,-0.2548 -0.25022,-0.33987 -0.0836,-0.50959 -0.0836,-2.46308 0,-2.54798 0,-2.46303 0,-2.46303 0.0836,-0.5096 0.25021,-0.33986 0.33374,-0.16973 0.2502,-0.0851 0.33375,0.0851 0.25021,0.16973 0.25021,0.2548 0.16666,0.50959 0,2.46304 0,2.46303 0.0836,2.54798 0,2.46307 z m -2.16846,-14.09883 0,-0.5945 0.33375,-0.42469 0.33373,-0.33987 0.417,-0.0851 0.50042,0.0851 0.33375,0.33987 0.33373,0.42469 0,0.5945 0,0.5096 -0.33373,0.42468 -0.33375,0.33987 -0.50042,0 -0.417,0 -0.33373,-0.33987 -0.33375,-0.42468 0,-0.5096 z"
     id="path103"
     inkscape:connector-curvature="0" />
  <path
     style="fill:#000000;fill-opacity:1;fill-rule:nonzero;stroke:none"
     d="m 366.24708,249.84034 -0.0836,0.50959 -0.25021,0.33987 -0.25021,0.2548 -0.41703,0.0851 -0.33375,0 -0.25021,-0.2548 -0.2502,-0.33987 -0.0836,-0.50959 0,-1.18909 -0.0836,-1.18904 0,-2.37813 0,-1.69864 0,-0.93424 -0.0836,-0.84934 -0.16666,-0.33987 -0.25021,-0.0851 -0.25021,-0.0851 -0.2502,0 -0.834,0 -0.75062,0.42465 -0.75064,0.42469 -0.50041,0.7644 -0.25021,0.42465 -0.16667,0.2548 -0.16668,0.33986 -0.0836,0.59454 0,2.63289 0,1.27399 0.0836,1.35893 -0.0836,0.59454 -0.25021,0.33987 -0.33373,0.2548 -0.33374,0 -0.33375,0 -0.25021,-0.2548 -0.2502,-0.33987 -0.16668,-0.50959 0,-2.37813 0,-1.18904 0,-1.18909 0,-2.29318 0,-2.46303 0.16668,-0.5096 0.2502,-0.25479 0.25021,-0.2548 0.33375,0 0.25021,0 0.33373,0.2548 0.25021,0.25479 0.0836,0.42465 0,0.2548 0.75062,-0.5945 0.83405,-0.42465 0.91745,-0.33987 0.834,-0.0851 0.83404,0.0851 0.83404,0.33987 0.75062,0.59454 0.50041,0.8493 0.16668,0.42469 0.0836,0.42465 0,0.5096 0,0.59454 0.0836,0.50959 -0.0836,0.59451 0,0.59454 0,0.50959 0,3.05758 0,1.78359 0,0 z"
     id="path105"
     inkscape:connector-curvature="0" />
  <path
     style="fill:#000000;fill-opacity:1;fill-rule:nonzero;stroke:none"
     d="m 369.66657,255.7856 -0.33375,-0.42465 -0.0836,-0.33987 0,-0.33986 0.0836,-0.33987 0.16668,-0.25479 0.33375,-0.16973 0.33374,-0.0851 0.50041,0.0851 0.25022,0.16973 0.25019,0.16973 0.16668,0.16973 0.25021,0.0851 0.2502,0.0851 0.16668,0.0851 0.25021,0.0851 0.33375,0.0851 0.417,0.0851 0.50041,0 0.50041,0 0.50042,-0.0851 0.41703,-0.16973 0.417,-0.2548 0.417,-0.33987 0.25022,-0.42465 0.16668,-0.33986 0.0836,-0.42469 0,-0.42465 0,-0.33986 0,-1.69865 -0.417,0.16974 -0.33374,0.16973 -0.417,0.0851 -0.417,0.16973 -0.50041,0.0851 -0.58383,0.0851 -0.58384,0 -0.58379,-0.0851 -1.16766,-0.33986 -0.91741,-0.7644 -0.75064,-0.93424 -0.50041,-1.10414 -0.33375,-1.18904 -0.0836,-1.35894 0.0836,-1.27399 0.33375,-1.18904 0.33374,-0.93429 0.58384,-0.76439 0.6672,-0.7644 0.83404,-0.50959 0.834,-0.33987 0.91746,-0.16973 0.91741,0 0.83404,0.33987 0.75063,0.42468 0.58378,0.42466 0.16668,-0.33987 0.2502,-0.16973 0.25021,-0.16973 0.33375,0 0.25021,0.0851 0.2502,0.16973 0.25021,0.2548 0.0836,0.42465 0,11.1262 0,1.27399 -0.33375,1.1041 -0.50041,0.93429 -1.00083,0.8493 -0.417,0.33986 -0.58383,0.2548 -0.50041,0.16973 -0.50043,0.0851 -1.16762,0.0851 -1.00082,-0.16973 -0.75064,-0.2548 -0.58382,-0.2548 -0.5838,-0.33986 -0.58382,-0.33987 z m 6.42199,-7.81379 0.0836,0 0.0836,0 0,-4.75622 0,0 0,0 -0.50038,-0.5096 -0.5841,-0.42468 -0.66721,-0.42465 -0.66724,-0.2548 -0.50043,0.0851 -0.58379,0.0851 -0.25021,0.0851 -0.16666,0.0851 -0.41705,0.16973 -0.50041,0.67945 -0.66721,1.35893 -0.0836,0.67945 0,1.44388 0.58383,1.6137 0.0836,0.16973 0.16668,0.16973 0.0836,0.16973 0.16667,0.16973 1.16762,0.42469 2.16845,-0.2548 1.00084,-0.76439 z"
     id="path107"
     inkscape:connector-curvature="0" />
  <path
     style="fill:#000000;fill-opacity:1;fill-rule:nonzero;stroke:none"
     d="m 380.4255,248.7362 -0.16666,-0.5096 0.0836,-0.33986 0.0836,-0.33986 0.16668,-0.2548 0.25019,-0.16973 0.33375,-0.0851 0.417,0.0851 0.33374,0.25479 0.58379,0.67945 0.75062,0.42469 0.75062,0.42465 0.83405,0.0851 0.50041,-0.16973 0.16668,-0.0851 0.0836,-0.0851 0.0836,-0.0851 0,0 0.0836,-0.0851 0,-0.0851 0.0836,-0.0851 0.16668,-0.16973 0.0836,-0.0851 0,-0.0851 0,-0.16973 0.0836,-0.0851 0,-0.2548 0,-0.0851 0,-0.16973 -0.16668,-0.42465 -0.0836,-0.0851 -0.0836,-0.16973 -0.0836,-0.16973 -0.66722,-0.42469 -0.58381,-0.16973 -0.58381,-0.16973 -0.58383,-0.16974 -0.50041,-0.25479 -0.58384,-0.33987 -0.5004,-0.33986 -0.50043,-0.67945 -0.33373,-0.59454 -0.16668,-0.7644 0,-0.8493 0.25021,-0.76439 0.33375,-0.76439 0.50041,-0.59455 0.58383,-0.50959 0.6672,-0.2548 1.00083,-0.16973 1.00084,0.16973 1.00083,0.2548 0.91741,0.42465 0.41705,0.33986 0.0836,0.42469 0.0836,0.42465 -0.16668,0.33987 -0.2502,0.25479 -0.33375,0.16974 -0.33374,0.0851 -0.50041,-0.16974 -0.5838,-0.33986 -0.58382,-0.0851 -0.66721,-0.0851 -0.58384,0.0851 -0.0836,0 -0.0836,0 -0.0836,0.0851 -0.0836,0 -0.25022,0.33986 -0.16668,0.33987 -0.0836,0.2548 0,0.42465 0.0836,0.16973 0.0836,0.16973 0,0.0851 0.0836,0.0851 0.0836,0.0851 0.0836,0.0851 0.58379,0.33986 0.66724,0.2548 0.66721,0.16973 0.66722,0.2548 0.58381,0.2548 0.58384,0.42469 0.50042,0.42465 0.33373,0.67945 0.25022,0.76439 0.0836,1.35894 -0.16666,0.67944 -0.16668,0.59454 -0.834,1.0192 -0.50041,0.42465 -0.33374,0.25479 -0.41701,0.0851 -0.33374,0.16973 -0.33375,0 -1.33441,-0.0851 -1.25104,-0.5096 -1.08425,-0.76439 -0.9174,-1.0192 z"
     id="path109"
     inkscape:connector-curvature="0" />
  <path
     style="fill:#000000;fill-opacity:1;fill-rule:nonzero;stroke:none"
     d="m 400.0251,241.43201 -0.417,-0.0851 -0.33375,-0.2548 -0.16668,-0.33987 -0.0836,-0.33986 0.0836,-0.42469 0.16668,-0.33987 0.33375,-0.25479 0.50041,-0.0851 1.33445,0 0,-4.07677 0.16668,-0.5096 0.25021,-0.33986 0.2502,-0.16973 0.33375,-0.0851 0.33374,0.0851 0.2502,0.16973 0.25021,0.2548 0.16668,0.50959 0,4.16172 2.25187,0 0.417,0.16973 0.25021,0.2548 0.16666,0.33986 0.0836,0.33986 -0.0836,0.33987 -0.16666,0.2548 -0.33375,0.25479 -0.417,0.16974 -2.16845,0 -0.0836,2.03838 0.0836,2.12333 0,2.12329 0,1.95348 -0.0836,0.5945 -0.25021,0.33986 -0.33373,0.2548 -0.33375,0.0851 -0.33374,-0.0851 -0.25022,-0.2548 -0.25019,-0.33986 -0.0836,-0.5096 -0.0836,-2.03838 0,-2.12329 0,-4.16171 -1.41787,0 0,0 z"
     id="path111"
     inkscape:connector-curvature="0" />
  <path
     style="fill:#000000;fill-opacity:1;fill-rule:nonzero;stroke:none"
     d="m 410.61724,249.84034 -0.0836,0.50959 -0.25021,0.33987 -0.25021,0.2548 -0.33375,0 -0.33373,0 -0.33374,-0.2548 -0.25021,-0.2548 -0.0836,-0.50959 0,-14.52349 0.0836,-0.42469 0.25021,-0.33986 0.25021,-0.16974 0.33373,-0.0851 0.33375,0 0.25021,0.2548 0.25021,0.2548 0.16667,0.42469 0,6.11515 0.33374,-0.33986 0.33375,-0.2548 0.5004,-0.33986 0.41705,-0.2548 0.417,-0.16974 0.50041,-0.16973 0.50041,-0.0851 0.417,0 0.41705,0.0851 0.417,0.16973 0.66721,0.2548 0.58382,0.5096 0.50042,0.5096 0.33375,0.67944 0.33373,0.67945 0.16668,0.76439 0.16668,0.7644 0.0836,0.76439 0,1.27399 0,1.18909 0,1.18904 0,1.27399 -0.0836,0.50959 -0.25021,0.33987 -0.25022,0.2548 -0.33374,0.0851 -0.33373,-0.0851 -0.33375,-0.16973 -0.25021,-0.33987 -0.0836,-0.50959 0,-2.46304 0,-1.18908 -0.0836,-1.27399 -0.0836,-0.93425 -0.25021,-0.76439 -0.33374,-0.76439 -0.6672,-0.5096 -0.58384,-0.16973 -0.5004,0.16973 -0.50043,0.16973 -0.50041,0.42465 -0.33374,0.33986 -0.41705,0.5096 -0.33373,0.5096 -0.33375,0.42469 -0.0836,0.0851 0,0.0851 -0.0836,0.0851 -0.0836,0 0,5.09596 0,0 z"
     id="path113"
     inkscape:connector-curvature="0" />
  <path
     style="fill:#000000;fill-opacity:1;fill-rule:nonzero;stroke:none"
     d="m 429.63303,249.50059 0,0 -0.0836,0 0.16667,0.33987 -0.0836,0.33986 -0.0836,0.33987 -0.16666,0.16973 -0.25022,0.16973 -0.25021,0.0851 -0.33373,0 -0.417,-0.16973 -0.16668,-0.16973 -0.25021,-0.33987 -0.16667,-0.25479 -0.16668,-0.2548 -0.417,0.42465 -0.58383,0.42469 -0.50041,0.25479 -0.58383,0.0851 -0.91741,0.0851 -1.00084,-0.0851 -0.91742,-0.0851 -0.83403,-0.59454 -0.58384,-0.50959 -0.50041,-0.7644 -0.25021,-0.76439 -0.16668,-0.84934 -0.0836,-0.8493 0.0836,-0.84934 0.16668,-0.84934 0.25021,-0.8493 0.0836,-0.33986 0.2502,-0.33987 0.16668,-0.33986 0.16668,-0.42469 0.2502,-0.5096 0.33374,-0.42465 0.33375,-0.42465 0.417,-0.33986 0.33374,-0.2548 0.33373,-0.2548 0.25021,-0.2548 0.33375,-0.16973 0.25021,-0.16973 0.41703,-0.16973 0.417,-0.16973 0.50043,-0.0851 0.50041,-0.16973 0.50041,0 0.50042,0.0851 0.417,0.0851 0.33375,0 0.33373,0.16973 0.25021,0.33986 0.25021,0.42465 0,1.78359 -0.0836,1.78358 0.0836,1.78359 0.16666,1.78358 0.0836,0.2548 0.0836,0.33987 0.33373,0.59454 0.16668,0.33986 0.16668,0.2548 0.0836,0.2548 0.0836,0.0851 z m -3.08591,-1.78358 0.0836,0 0,-0.0851 0.0836,0 0,0 -0.2502,-1.61374 -0.0836,-1.61369 0.0836,-1.69868 0,-1.44384 -0.25021,0 -0.25021,0.0851 -0.25022,0 -0.25019,0.16973 -0.25022,0 -0.16668,0.0851 -0.25019,0.0851 -0.0836,0.0851 -0.66726,0.42465 -0.50041,0.5096 -0.50041,0.59454 -0.33374,0.76439 -0.33375,0.67945 -0.16668,0.76439 -0.16666,0.84935 0,0.76439 0,0.2548 0.0836,0.16973 0.0836,0.16973 0.0836,0.2548 0.0836,0.0851 0.16668,0.16973 0.0836,0.16973 0.16667,0.16973 0.25021,0.0851 0.16668,0.0851 0.417,0.16973 0.417,0 0.41703,0 0.33374,0 0.41705,-0.0851 0.33373,-0.2548 0.33375,-0.25479 0.33374,-0.33987 0.33375,-0.25479 z"
     id="path115"
     inkscape:connector-curvature="0" />
  <path
     style="fill:#000000;fill-opacity:1;fill-rule:nonzero;stroke:none"
     d="m 431.71811,241.43201 -0.50041,-0.0851 -0.25021,-0.2548 -0.25021,-0.33987 0,-0.33986 0,-0.42469 0.25021,-0.33987 0.33374,-0.25479 0.50041,-0.0851 1.33446,0 0,-4.07677 0.16668,-0.5096 0.16666,-0.33986 0.33375,-0.16973 0.33374,-0.0851 0.2502,0.0851 0.25021,0.16973 0.25022,0.2548 0.16666,0.50959 0,4.16172 2.33529,0 0.417,0.16973 0.25021,0.2548 0.16668,0.33986 0,0.33986 0,0.33987 -0.25021,0.2548 -0.25021,0.25479 -0.41703,0.16974 -2.25188,0 0,2.03838 0,2.12333 0,2.12329 0.0836,1.95348 -0.0836,0.5945 -0.2502,0.33986 -0.33375,0.2548 -0.33374,0.0851 -0.33375,-0.0851 -0.33374,-0.2548 -0.2502,-0.33986 -0.0836,-0.5096 0,-2.03838 0,-2.12329 0,-4.16171 -1.41783,0 0,0 z"
     id="path117"
     inkscape:connector-curvature="0" />
  <path
     style="fill:#000000;fill-opacity:1;fill-rule:nonzero;stroke:none"
     d="m 454.65381,247.80196 0.33375,-0.2548 0.417,-0.0851 0.33374,0.0851 0.33373,0.16973 0.16668,0.33986 0.0836,0.42465 -0.0836,0.42465 -0.25021,0.42469 -0.83403,0.8493 -1.00083,0.42469 -1.08425,0.33987 -1.00083,-0.0851 -1.00084,-0.2548 -0.91741,-0.67949 -0.83404,-0.76439 -0.50041,-1.18905 -0.25022,-0.67944 -0.0836,-0.7644 -0.16668,-0.76439 0.0836,-0.7644 0.0836,-1.27398 0.417,-1.274 0.50041,-1.18908 0.75063,-1.01919 0.83404,-0.8493 1.0842,-0.5096 0.50042,-0.16973 1.25104,0 0.58383,0.16973 0.66721,0.2548 0.50041,0.33987 0.50041,0.33986 0.50043,0.5096 0.25021,0.42465 0,0.42465 0,0.33986 -0.16668,0.2548 -0.25021,0.2548 -0.33375,0.0851 -0.33373,0 -0.41704,-0.16974 -0.75063,-0.76439 -0.75062,-0.2548 -0.75062,-0.0851 -0.66721,0.2548 -0.58384,0.33987 -0.50041,0.67948 -0.417,0.67945 -0.33374,0.84934 -0.25021,0.8493 0,0.93429 0,0.93424 0.33374,0.84934 0.33375,0.67945 0.417,0.42465 0.50041,0.33986 0.58383,0.16974 0.50042,0 0.58379,-0.16974 0.58384,-0.33986 0.50041,-0.50959 z"
     id="path119"
     inkscape:connector-curvature="0" />
  <path
     style="fill:#000000;fill-opacity:1;fill-rule:nonzero;stroke:none"
     d="m 457.98994,244.23478 0.33373,-0.84934 0.33374,-0.76439 0.417,-0.76439 0.50041,-0.67945 0.58384,-0.59454 0.58383,-0.5096 0.75062,-0.42465 0.834,-0.2548 0.66725,-0.16973 1.16763,0.16973 0.50041,0.16973 1.00084,0.67945 0.66719,1.01919 0.58384,1.10414 0.25021,1.3589 0.16668,1.27399 -0.25021,1.27399 -0.417,1.52879 -0.83405,1.35893 -0.50041,0.59454 -1.16762,1.01919 -0.66721,0.33987 -1.00084,0.33986 -0.91745,-0.0851 -0.91741,-0.16973 -0.83403,-0.42469 -0.66722,-0.5945 -0.58383,-0.84934 -0.417,-0.93425 -0.25021,-1.10413 -0.0836,-0.67945 0,-0.67949 0,-0.67945 0.16668,-0.67945 0,-0.33986 z m 1.91824,0.5945 -0.0836,0.5096 -0.0836,0.5096 0,0.50959 0.0836,0.5096 0.0836,0.67949 0.2502,0.5945 0.417,0.50959 0.41705,0.33987 0.5004,0.2548 0.58381,0.0851 0.58382,-0.0851 0.58383,-0.33987 0.75062,-0.5945 0.50043,-0.76439 0.417,-0.84934 0.25019,-0.93425 0.16668,-0.84934 -0.0836,-0.84934 -0.0836,-0.8493 -0.33375,-0.76439 -0.50041,-0.59454 -0.5838,-0.33987 -0.66724,-0.16973 -0.834,0.2548 -0.91746,0.50959 -0.58379,0.84934 -0.50041,0.8493 -0.33374,1.01919 z"
     id="path121"
     inkscape:connector-curvature="0" />
  <path
     style="fill:#000000;fill-opacity:1;fill-rule:nonzero;stroke:none"
     d="m 478.92397,248.82115 0.25021,0.33986 0,0.5096 0,0.33986 -0.25021,0.33987 -0.25021,0.25479 -0.33375,0 -0.5004,-0.0851 -0.41701,-0.42469 -0.417,-0.5945 -0.25021,-0.59454 -0.66724,0.67945 -0.75062,0.50959 -0.91741,0.42469 -0.83405,0.0851 -0.66721,0 -0.58382,-0.25479 -0.5838,-0.2548 -0.50041,-0.42469 -0.50041,-0.42465 -0.41705,-0.59454 -0.33374,-0.5096 -0.2502,-0.67945 -0.16668,-0.67945 -0.0836,-0.76439 -0.0836,-0.84934 0,-0.84934 0,-1.1041 0.0836,-1.01919 0,-0.93429 0,-0.84929 0.16666,-0.5096 0.25022,-0.2548 0.25021,-0.2548 0.33374,0 0.2502,0 0.33375,0.16974 0.25021,0.33986 0.16666,0.42465 -0.0836,1.18904 0,1.18909 0,1.1041 0,1.27398 0.0836,1.35894 0.50043,1.01919 0.25021,0.42465 0.75062,0.5096 0.50041,0 0.33375,0 0.41703,-0.0851 0.33374,-0.16973 0.33375,-0.2548 0.25021,-0.33987 0.33373,-0.25479 0.25021,-0.33987 0.16668,-0.33986 0.0836,-0.0851 0.0836,0 0.0836,-0.0851 0,-0.0851 -0.0836,-1.27399 -0.0836,-1.27399 0,-1.52879 0.0836,-0.76439 0.0836,-0.67945 0.16668,-0.59454 0.16666,-0.42465 0.33375,-0.33987 0.41704,-0.0851 0.33373,0.0851 0.25022,0.2548 0.25021,0.33986 0.0836,0.5096 0,0.59454 -0.0836,0.8493 -0.0836,0.84934 0,0.93425 0,0.76439 0,0.67949 0.0836,0.76439 0.0836,0.67945 0.16666,0.59454 0.16668,0.59451 0.16668,0.50959 0.2502,0.42469 z"
     id="path123"
     inkscape:connector-curvature="0" />
  <path
     style="fill:#000000;fill-opacity:1;fill-rule:nonzero;stroke:none"
     d="m 489.84969,249.84034 -0.0836,0.50959 -0.2502,0.33987 -0.33375,0.2548 -0.33374,0.0851 -0.33375,0 -0.25019,-0.2548 -0.25022,-0.33987 -0.16668,-0.50959 0,-1.18909 0,-1.18904 0,-2.37813 0,-1.69864 0,-0.93424 -0.0836,-0.84934 -0.16666,-0.33987 -0.25021,-0.0851 -0.25021,-0.0851 -0.33375,0 -0.75062,0 -0.83403,0.42465 -0.66722,0.42469 -0.58383,0.7644 -0.25021,0.42465 -0.16667,0.2548 -0.0836,0.33986 -0.0836,0.59454 0,2.63289 0,1.27399 0,1.35893 -0.0836,0.59454 -0.25022,0.33987 -0.25021,0.2548 -0.33374,0 -0.33373,0 -0.33375,-0.2548 -0.25021,-0.33987 -0.0836,-0.50959 0,-2.37813 0,-1.18904 0,-1.18909 0,-2.29318 0,-2.46303 0.0836,-0.5096 0.25021,-0.25479 0.25021,-0.2548 0.33373,0 0.33375,0 0.25021,0.2548 0.25021,0.25479 0.16667,0.42465 0,0.2548 0.75062,-0.5945 0.83405,-0.42469 0.83403,-0.33987 0.91742,-0.0851 0.83403,0.0851 0.75063,0.33987 0.75062,0.59454 0.5838,0.84934 0.0836,0.42465 0.0836,0.42465 0.0836,0.5096 0,0.59454 0,0.50959 0,0.59455 0,0.5945 0,0.50959 0,3.05758 0,1.78359 0,0 z"
     id="path125"
     inkscape:connector-curvature="0" />
  <path
     style="fill:#000000;fill-opacity:1;fill-rule:nonzero;stroke:none"
     d="m 492.93561,241.43201 -0.50041,-0.0851 -0.33375,-0.2548 -0.16668,-0.33987 0,-0.33986 0,-0.42469 0.25021,-0.33987 0.33375,-0.25479 0.50041,-0.0851 1.33442,0 0,-4.07677 0.0836,-0.5096 0.2502,-0.33986 0.33374,-0.16973 0.25022,-0.0851 0.33374,0.0851 0.2502,0.16973 0.25021,0.2548 0.16668,0.50959 0,4.16172 2.33525,0 0.33374,0.16973 0.33373,0.2548 0.16668,0.33986 0,0.33986 0,0.33987 -0.25021,0.2548 -0.2502,0.25479 -0.417,0.16974 -2.25188,0 0,2.03838 0,2.12333 0,2.12329 0,1.95348 0,0.5945 -0.33373,0.33986 -0.25021,0.2548 -0.33375,0.0851 -0.33374,-0.0851 -0.33373,-0.2548 -0.25021,-0.33986 -0.0836,-0.5096 0,-2.03838 0,-2.12329 0,-4.16171 -1.41784,0 0,0 z"
     id="path127"
     inkscape:connector-curvature="0" />
</svg>
