<?xml version="1.0" encoding="UTF-8" standalone="no"?>
<svg
   xmlns:dc="http://purl.org/dc/elements/1.1/"
   xmlns:cc="http://creativecommons.org/ns#"
   xmlns:rdf="http://www.w3.org/1999/02/22-rdf-syntax-ns#"
   xmlns:svg="http://www.w3.org/2000/svg"
   xmlns="http://www.w3.org/2000/svg"
   xmlns:sodipodi="http://sodipodi.sourceforge.net/DTD/sodipodi-0.dtd"
   xmlns:inkscape="http://www.inkscape.org/namespaces/inkscape"
   version="1.0"
   width="600mm"
   height="400mm"
   id="svg2"
   inkscape:version="0.91 r13725"
   viewBox="0 0 600 400"
   sodipodi:docname="big kid.svg">
  <metadata
     id="metadata131">
    <rdf:RDF>
      <cc:Work
         rdf:about="">
        <dc:format>image/svg+xml</dc:format>
        <dc:type
           rdf:resource="http://purl.org/dc/dcmitype/StillImage" />
        <dc:title></dc:title>
      </cc:Work>
    </rdf:RDF>
  </metadata>
  <sodipodi:namedview
     pagecolor="#ffffff"
     bordercolor="#666666"
     borderopacity="1"
     objecttolerance="10"
     gridtolerance="10"
     guidetolerance="10"
     inkscape:pageopacity="0"
     inkscape:pageshadow="2"
     inkscape:window-width="1498"
     inkscape:window-height="911"
     id="namedview129"
     inkscape:document-units="mm"
     showgrid="false"
     inkscape:zoom="0.32"
     inkscape:cx="1068.8156"
     inkscape:cy="441.24491"
     inkscape:window-x="0"
     inkscape:window-y="0"
     inkscape:window-maximized="0"
     inkscape:current-layer="svg2"
     inkscape:showpageshadow="false" />
  <defs
     id="defs4">
    <pattern
       id="WMFhbasepattern"
       patternUnits="userSpaceOnUse"
       width="6"
       height="6"
       x="0"
       y="0" />
  </defs>
  <g
     id="g4194"
     transform="matrix(1.5420463,0,0,1.5402812,-8.9598316,109.18484)">
    <path
       inkscape:connector-curvature="0"
       id="path7"
       d="m 75.597878,77.587955 1.730741,5.293536 -0.324514,3.639306"
       style="fill:none;stroke:#000000;stroke-width:0.9829942px;stroke-linecap:round;stroke-linejoin:miter;stroke-miterlimit:4;stroke-dasharray:none;stroke-opacity:1" />
    <path
       inkscape:connector-curvature="0"
       id="path9"
       d="m 54.288124,73.231806 20.119869,0.220651"
       style="fill:none;stroke:#000000;stroke-width:1.9659884px;stroke-linecap:round;stroke-linejoin:miter;stroke-miterlimit:4;stroke-dasharray:none;stroke-opacity:1" />
    <path
       inkscape:connector-curvature="0"
       id="path11"
       d="m 28.597433,80.289846 0.757199,-0.330846 1.406226,-0.882238 0.973542,-0.275723 1.135799,-0.220651 1.62257,0 1.460313,0.165423 2.163428,0.827116 0.216351,0.110195 0.594942,0.275722 0.919455,0.827115 1.189886,1.543931 0.757198,0.937414"
       style="fill:none;stroke:#000000;stroke-width:0.60071868px;stroke-linecap:butt;stroke-linejoin:miter;stroke-miterlimit:4;stroke-dasharray:none;stroke-opacity:1" />
    <path
       inkscape:connector-curvature="0"
       id="path13"
       d="m 32.653858,82.330072 0.216352,0.661692 -0.216352,1.047688 -0.3786,0.275697 -0.486771,0.05523 -0.865372,-0.606542 -0.324514,-0.606568 -0.216351,-0.661693 0.216351,-1.047661 0.378601,-0.275723 0.432684,-0.05523 0.919458,0.661692 0.324514,0.551418 z"
       style="fill:#000000;fill-opacity:1;fill-rule:nonzero;stroke:#000000;stroke-width:0.38227549px;stroke-linecap:butt;stroke-linejoin:miter;stroke-miterlimit:4;stroke-dasharray:none;stroke-opacity:1" />
    <path
       inkscape:connector-curvature="0"
       id="path15"
       d="m 38.873709,82.826341 0.108162,0.496269 -0.649028,1.102812 -0.703114,0.441145 -0.703115,0.38597 -0.973542,0.05523 -0.432684,-0.165423 -0.108163,-0.165423 -0.108163,-0.496269 0.703115,-1.102812 0.649028,-0.441119 0.703114,-0.385996 0.973542,-0.110195 0.432685,0.220651 0.108163,0.165423 z"
       style="fill:#000000;fill-opacity:1;fill-rule:nonzero;stroke:#000000;stroke-width:0.16383237px;stroke-linecap:butt;stroke-linejoin:miter;stroke-miterlimit:4;stroke-dasharray:none;stroke-opacity:1" />
    <path
       inkscape:connector-curvature="0"
       id="path17"
       d="m 26.542176,53.601617 -3.569654,-0.165423 -2.379769,0.165423 -2.055254,0.771965 -1.893,1.599081"
       style="fill:none;stroke:#000000;stroke-width:1.9659884px;stroke-linecap:round;stroke-linejoin:miter;stroke-miterlimit:4;stroke-dasharray:none;stroke-opacity:1" />
    <path
       inkscape:connector-curvature="0"
       id="path19"
       d="m 48.663215,55.42127 2.271598,0.110195 2.650199,0.661693 2.271598,1.323384 2.109341,2.260772"
       style="fill:none;stroke:#000000;stroke-width:2.40287471px;stroke-linecap:round;stroke-linejoin:miter;stroke-miterlimit:4;stroke-dasharray:none;stroke-opacity:1" />
    <path
       inkscape:connector-curvature="0"
       id="path21"
       d="m 31.463973,96.887298 -1.460313,-3.694456 -0.05409,-0.551393 0.162257,-1.102837 0.486771,-0.661692 0.27043,-0.275697 0.703112,-0.551419 0.811285,-0.275696 0.703114,-0.110195 1.5144,-0.220651 0.811285,0.110195 0.757198,0.05523 1.676657,0.330846 0.865369,0.551419 1.243972,0.771965 1.243969,0.992538 0.811285,0.716842 1.081713,1.157961 0.432687,0.716816 0.162257,0.330846 -4.380939,1.543957 -4.975883,1.59908 -0.865369,0.27572 -1.135799,0.2757 -0.865372,-1.985077 z"
       style="fill:#000000;fill-opacity:1;fill-rule:evenodd;stroke:#000000;stroke-width:0.43688631px;stroke-linecap:butt;stroke-linejoin:miter;stroke-miterlimit:4;stroke-dasharray:none;stroke-opacity:1" />
    <path
       inkscape:connector-curvature="0"
       id="path23"
       d="m 32.816115,96.391029 0.486771,-0.882265 0.649028,-0.827115 0.270428,-0.275696 1.243969,-1.157962 0.703115,-0.22065 0.811285,-0.165423 1.5144,0.05523 0.811285,0.110196 0.919455,0.275722 1.406227,1.047662 0.649028,0.551418 -9.789505,3.308461 0.162257,-0.937389 0.162257,-0.882264 z"
       style="fill:#ffffff;fill-opacity:1;fill-rule:evenodd;stroke:#ffffff;stroke-width:0.27305394px;stroke-linecap:butt;stroke-linejoin:miter;stroke-miterlimit:4;stroke-dasharray:none;stroke-opacity:1" />
    <path
       inkscape:connector-curvature="0"
       id="path25"
       d="m 15.184186,76.319694 -2.596112,4.356148 -0.865369,1.70938 -0.432687,1.709354 0.162257,2.426221 0.594944,2.591619 1.027626,1.985076 1.730743,2.426196 1.514397,1.378534 2.217514,1.819653 2.542025,1.599082 2.055255,1.10284 1.352143,0.49626 2.163427,1.213093 2.97471,2.64677 1.460313,1.43368 1.947084,1.21309 1.838914,0.77199 2.704282,0 9.410907,-2.64677 8.653708,-2.92249 9.356819,-4.576699 6.598454,-4.080426 2.001168,-1.764529"
       style="fill:none;stroke:#000000;stroke-width:0.9829942px;stroke-linecap:round;stroke-linejoin:miter;stroke-miterlimit:4;stroke-dasharray:none;stroke-opacity:1" />
    <path
       inkscape:connector-curvature="0"
       id="path27"
       d="m 72.352738,90.38065 4.056425,1.378534 2.487942,0.110195 3.082883,-0.551418 2.163425,-1.047662 2.109341,-1.929953 1.243972,-2.591618 0.432685,-2.205649 0.05409,-2.09535 L 87.76715,77.422427 87.118122,75.54765 86.14458,74.224266 84.684267,73.066305 82.196325,72.18404 78.1399,72.404691 l -3.299224,1.819654 -0.865372,0.661692"
       style="fill:none;stroke:#000000;stroke-width:0.9829942px;stroke-linecap:round;stroke-linejoin:miter;stroke-miterlimit:4;stroke-dasharray:none;stroke-opacity:1" />
    <path
       inkscape:connector-curvature="0"
       id="path29"
       d="m 75.868306,76.926262 1.784827,-0.716841 2.866542,0.716841 1.35214,2.591619 -0.270427,2.646768 -1.568484,2.536495 -2.920626,2.260773"
       style="fill:none;stroke:#000000;stroke-width:0.9829942px;stroke-linecap:round;stroke-linejoin:miter;stroke-miterlimit:4;stroke-dasharray:none;stroke-opacity:1" />
    <path
       inkscape:connector-curvature="0"
       id="path31"
       d="m 84.30567,73.231806 2.325685,-4.466421 2.650198,-5.238387 1.35214,-7.885181 -0.162257,-7.554309 -0.540855,-4.962691 -1.243972,-6.451497 -5.570822,-8.436574 -11.195733,-7.774882 -5.354481,-4.245849 -9.789507,-1.26826 -8.653708,-0.165423 -3.623738,1.102837 -1.135799,0.110195 -3.51557,0 -5.246309,-0.441119 0.811285,0.441119 3.191054,1.488808 2.86654,0.992538 -1.24397,0.716841 -5.084054,1.929927 -4.705453,2.977614 -2.650196,2.977615 -0.540857,2.701918 2.920626,-3.584183 6.003509,-3.639307 5.029967,-1.268234 -4.002338,1.102811 -0.919459,0.220651 -2.704282,2.426196 -4.164596,4.742144 0.270428,-0.606569 -2.974713,5.128114 -0.432684,4.521571 3.136969,-3.915003 2.487939,-1.819653 3.785998,-2.536495 3.677825,-0.716842 -0.703112,2.315923 0,0.716841 0.108162,1.543957 0.108163,0.992538 0.27043,0.165423 1.24397,-2.040226 1.73074,-2.536495 1.243972,-0.771965 12.331533,-5.183263 7.680163,1.874803 4.002341,1.323384 1.24397,1.433657 1.947084,1.70938 0.757198,0.827115 0.27043,0.44112 -1.568486,-0.551393 -2.325682,-1.047688 -2.758369,0.220651 2.109341,0.937388 1.838911,1.433684 3.13697,4.576695 3.461484,6.837493 0.649028,5.900079 -1.40623,7.002916 -0.973542,4.576695 -0.378598,3.253311 0,2.977614 0.378598,1.985076 0.108163,1.599107 1.514397,1.59908 2.379771,-1.543957 3.082883,-0.275696 1.784828,0.110195 1.892997,1.213111"
       style="fill:none;stroke:none" />
    <path
       inkscape:connector-curvature="0"
       id="path33"
       d="m 84.30567,73.231806 2.325685,-4.466421 2.650198,-5.238387 1.35214,-7.885181 -0.162257,-7.554309 -0.540855,-4.962691 -1.243972,-6.451497 -5.570822,-8.436574 -11.195733,-7.774882 -5.354481,-4.245849 -9.789507,-1.26826 -8.653708,-0.165423 -3.623738,1.102837 -1.135799,0.110195 -3.51557,0 -5.246309,-0.441119 0.811285,0.441119 3.191054,1.488808 2.86654,0.992538 -1.24397,0.716841 -5.084054,1.929927 -4.705453,2.977614 -2.650196,2.977615 -0.540857,2.701918 2.920626,-3.584183 6.003509,-3.639307 5.029967,-1.268234 -4.002338,1.102811 -0.919459,0.220651 -2.704282,2.426196 -4.164596,4.742144 0.270428,-0.606569 -2.974713,5.128114 -0.432684,4.521571 3.136969,-3.915003 2.487939,-1.819653 3.785998,-2.536495 3.677825,-0.716842 -0.703112,2.315923 0,0.716841 0.108162,1.543957 0.108163,0.992538 0.27043,0.165423 1.24397,-2.040226 1.73074,-2.536495 1.243972,-0.771965 12.331533,-5.183263 7.680163,1.874803 4.002341,1.323384 1.24397,1.433657 1.947084,1.70938 0.757198,0.827115 0.27043,0.44112 -1.568486,-0.551393 -2.325682,-1.047688 -2.758369,0.220651 2.109341,0.937388 1.838911,1.433684 3.13697,4.576695 3.461484,6.837493 0.649028,5.900079 -1.40623,7.002916 -0.973542,4.576695 -0.378598,3.253311 0,2.977614 0.378598,1.985076 0.108163,1.599107 1.514397,1.59908 2.379771,-1.543957 3.082883,-0.275696 1.784828,0.110195 1.892997,1.213111"
       style="fill:#000000;fill-opacity:1;stroke:#000000;stroke-width:0.27305394px;stroke-linecap:butt;stroke-linejoin:miter;stroke-miterlimit:4;stroke-dasharray:none;stroke-opacity:1" />
    <path
       inkscape:connector-curvature="0"
       id="path35"
       d="m 15.238272,76.26457 0.757199,-2.095375 0.108163,-4.907541 -1.298056,-4.190725 -1.1358,-2.867315 -1.027626,-2.922491 -0.540857,-3.363584 -0.108163,-3.970152 0.432685,-3.970152 1.189885,-3.915029 5.841252,-8.932843 3.13697,-3.529007 3.785995,-2.812191 0.973542,-0.771992"
       style="fill:none;stroke:#000000;stroke-width:0.9829942px;stroke-linecap:round;stroke-linejoin:miter;stroke-miterlimit:4;stroke-dasharray:none;stroke-opacity:1" />
    <path
       inkscape:connector-curvature="0"
       id="path37"
       d="m 38.873709,18.035669 -6.11168,1.378507 -14.981731,7.333763 -3.731911,4.797267 -4.002339,5.183263 -1.8389141,4.466422 7.1393091,-6.947767 -6.2739371,8.822544 -0.432684,3.36361 7.6260791,-10.531924 -3.191056,5.789806 0.216351,3.032738 4.218682,-6.561771 1.62257,-2.757042 3.461484,-3.970152 4.759537,-3.584183 2.271598,-2.701892 0.919458,-1.157961 3.677825,-2.426222 2.812455,-1.268234 2.704283,-0.882265 1.568483,-0.882238 -1.35214,-0.716842 -1.081715,0.220651 z"
       style="fill:#000000;fill-opacity:1;fill-rule:evenodd;stroke:#000000;stroke-width:0.27305394px;stroke-linecap:butt;stroke-linejoin:miter;stroke-miterlimit:4;stroke-dasharray:none;stroke-opacity:1" />
    <path
       inkscape:connector-curvature="0"
       id="path39"
       d="m 15.130102,66.008343 -3.028799,0.275697 -2.1634251,0.937388 -1.460313,1.433684 -0.919459,1.874776 -0.270427,1.874803 0.108163,1.929927 0.432684,1.323384 0.811285,0.992538 1.027629,1.543957 1.5684831,1.59908 0.973542,0.606569"
       style="fill:none;stroke:#000000;stroke-width:1.03760493px;stroke-linecap:round;stroke-linejoin:miter;stroke-miterlimit:4;stroke-dasharray:none;stroke-opacity:1" />
    <path
       inkscape:connector-curvature="0"
       id="path41"
       d="m 14.372901,77.091685 -2.271598,-1.543956 -0.594942,-0.771966 -0.432684,-0.771991 -0.108163,-0.606543 -0.162257,-0.937388 0.216351,-0.827115 0.486771,-0.661692 0.703115,-0.385996 0.649028,-0.05523 0.811285,0.05523 1.243969,0.165423 1.135799,0.110195 0.108163,2.1505 -0.649028,1.709379 -0.649028,1.378508 -0.486771,0.992538 z"
       style="fill:none;stroke:#000000;stroke-width:0.76455098px;stroke-linecap:round;stroke-linejoin:miter;stroke-miterlimit:4;stroke-dasharray:none;stroke-opacity:1" />
    <path
       inkscape:connector-curvature="0"
       id="path43"
       d="m 17.888471,64.519536 13.791845,1.709354 -0.865371,9.484262 -13.845932,-1.70938 0.919458,-9.484236 z"
       style="fill:#000000;fill-opacity:1;fill-rule:nonzero;stroke:#000000;stroke-width:0.92838341px;stroke-linecap:butt;stroke-linejoin:miter;stroke-miterlimit:4;stroke-dasharray:none;stroke-opacity:1" />
    <path
       inkscape:connector-curvature="0"
       id="path45"
       d="M 40.766709,67.331727 56.018867,68.544812 55.47801,78.856189 40.279938,77.643078 40.766709,67.331727 Z"
       style="fill:#000000;fill-opacity:1;fill-rule:nonzero;stroke:#000000;stroke-width:0.9829942px;stroke-linecap:butt;stroke-linejoin:miter;stroke-miterlimit:4;stroke-dasharray:none;stroke-opacity:1" />
    <path
       inkscape:connector-curvature="0"
       id="path47"
       d="m 40.766709,73.121533 -3.785998,-2.591645 -3.13697,-0.496269 -3.569654,1.102838"
       style="fill:none;stroke:#000000;stroke-width:1.25604808px;stroke-linecap:round;stroke-linejoin:miter;stroke-miterlimit:4;stroke-dasharray:none;stroke-opacity:1" />
    <path
       inkscape:connector-curvature="0"
       id="path49"
       d="M 19.02427,70.640188 17.618041,69.316804 16.211814,68.048543"
       style="fill:none;stroke:#000000;stroke-width:2.02059937px;stroke-linecap:round;stroke-linejoin:miter;stroke-miterlimit:4;stroke-dasharray:none;stroke-opacity:1" />
    <path
       inkscape:connector-curvature="0"
       id="path51"
       d="m 105.29091,56.744654 -0.91946,-0.165423 -0.64903,-0.385995 -0.59494,-0.44112 -0.3786,-0.496269 -0.16226,-0.385995 -0.27043,-0.661693 -0.10816,-0.385995 0,-0.330846 0,-28.673306 -0.54086,0.220651 -0.3786,0.165423 -0.3786,0.110195 -0.59494,0.05523 -0.540855,-0.05523 -0.97354,-0.330846 -0.43268,-0.330846 -0.27044,-0.385996 -0.3786,-0.827115 0,-0.441119 0.0541,-0.716842 0.7572,-1.213111 0.7572,-0.496269 0.811275,-0.496269 1.893,-0.827115 1.08171,-0.330846 2.21752,-0.661692 2.32568,-0.38597 2.32568,-0.275722 1.67666,-0.05523 2.2716,0.05523 4.05642,0.771992 1.83892,0.716815 1.73074,0.827115 2.97471,2.040226 1.29805,1.268235 1.1358,1.323384 1.83891,3.032764 0.70312,1.65423 0.59494,1.764503 0.64903,3.584183 0.0541,1.874777 -0.0541,1.929953 -0.70311,3.749579 -0.59495,1.874803 -0.7572,1.764504 -2.10934,3.198187 -1.35214,1.433657 -0.97354,0.882265 -2.21751,1.543931 -1.18989,0.606568 -2.37977,1.047662 -2.59611,0.771991 -2.6502,0.551393 -2.6502,0.385996 -2.70429,0.330846 -2.54202,0.220651 z m 6.27393,-33.966868 -1.02762,0.05523 -1.08172,0.110195 -1.08171,0.110195 -1.02763,0.165424 0,28.121912 1.83891,-0.220651 1.94709,-0.22065 2.05525,-0.330846 1.94709,-0.44112 1.893,-0.551419 1.73074,-0.771965 0.81128,-0.441119 1.40623,-1.047688 0.59494,-0.661692 0.97354,-1.102812 1.5144,-2.536494 0.54086,-1.378508 0.48677,-1.433658 0.48677,-2.867341 0.0541,-1.433657 -0.0541,-1.268261 -0.43268,-2.481345 -0.43269,-1.213085 -0.48677,-1.102837 -1.35214,-2.095115 -0.86537,-0.937389 -0.91946,-0.882264 -2.16343,-1.488808 -1.29805,-0.551418 -1.35214,-0.496269 -3.0288,-0.551393 -1.67666,-0.05523 z"
       style="fill:#000000;fill-opacity:1;fill-rule:nonzero;stroke:none" />
    <path
       inkscape:connector-curvature="0"
       id="path53"
       d="m 142.50185,53.491318 -0.0541,0.716841 -0.43268,1.102812 -0.3786,0.385996 -0.3786,0.330846 -0.81129,0.385995 -0.48677,0.05523 -0.43268,-0.05523 -0.81129,-0.330846 -0.3786,-0.330846 -0.32451,-0.330846 -0.48677,-1.047688 -0.10817,-0.661692 -0.0541,-6.065502 -0.10816,-6.230951 0,-6.175775 -0.0541,-6.065528 0.16226,-0.606542 0.54086,-0.937389 0.32451,-0.385995 0.32451,-0.275697 0.81129,-0.330846 0.43268,0 0.3786,0 0.7572,0.275697 0.32452,0.275696 0.3786,0.330846 0.54085,0.882265 0.16226,0.606542 0.0541,6.010379 0,6.230924 0.0541,6.230951 0.0541,6.010353 z m -5.73309,-34.738834 0.0541,-0.661692 0.43268,-1.213085 0.3786,-0.496269 0.48677,-0.441145 1.02763,-0.496269 0.64903,-0.05523 0.59494,0.05523 1.08172,0.496269 0.43268,0.441145 0.43269,0.496269 0.48677,1.213085 0,0.661692 0,0.661692 -0.48677,1.213111 -0.43269,0.496269 -0.43268,0.441119 -1.08172,0.49627 -0.59494,0 -0.64903,0 -1.02763,-0.49627 -0.48677,-0.441119 -0.3786,-0.496269 -0.43269,-1.213111 -0.0541,-0.661692 z"
       style="fill:#000000;fill-opacity:1;fill-rule:nonzero;stroke:none" />
    <path
       inkscape:connector-curvature="0"
       id="path55"
       d="m 152.29135,68.158843 -0.3786,-0.441146 -0.48677,-0.882239 -0.10816,-0.496269 -0.0541,-0.882264 0.27043,-0.771966 0.54086,-0.661692 0.7572,-0.441145 0.48677,-0.110195 1.02763,0.05523 0.59494,0.165423 0.7572,0.385996 0.59494,0.330846 0.54086,0.385996 0.59494,0.275696 0.54086,0.275697 0.59494,0.22065 0.64903,0.220651 0.7572,0.165423 1.18988,0.220651 1.24397,0.05523 1.29806,-0.05523 1.29805,-0.275696 1.24397,-0.385996 1.08172,-0.606542 0.54085,-0.385996 0.91946,-0.937388 0.32452,-0.551419 0.37859,-0.827115 0.10817,-1.047662 0.0541,-1.047688 0,-0.937388 0,-4.135576 -0.97354,0.496269 -1.02763,0.330847 -0.97354,0.330846 -1.08172,0.330846 -1.51439,0.275696 -1.46032,0.110195 -1.51439,0.05523 -1.5144,-0.275696 -1.56849,-0.330846 -2.70428,-1.323385 -1.1358,-0.992538 -1.08171,-1.102837 -1.62257,-2.481345 -0.64903,-1.433658 -0.48677,-1.433657 -0.54086,-3.087914 -0.0541,-1.59908 0,-1.599081 0.54085,-3.087914 0.48678,-1.433657 0.48677,-1.157961 1.29805,-2.09535 0.81129,-0.992538 0.86537,-0.882265 1.893,-1.543956 1.02762,-0.551393 1.08172,-0.551419 2.2716,-0.661692 1.18988,-0.110195 1.24397,-0.05523 2.37977,0.441119 1.1358,0.496269 1.78483,0.937415 1.67665,1.047662 0.21635,-0.44112 0.48677,-0.606542 0.32452,-0.220651 0.3786,-0.220651 0.70311,-0.165423 0.3786,0.05523 0.7572,0.165423 0.59494,0.441119 0.3786,0.330846 0.48678,0.827116 0.16225,0.551418 0,27.184499 -0.0541,1.65423 -0.48677,2.977614 -0.48677,1.268261 -0.54086,1.213084 -1.94708,2.205649 -1.35214,0.937389 -1.24398,0.771991 -1.35214,0.606542 -1.35214,0.49627 -1.35214,0.22065 -1.5144,0.110196 -2.86654,-0.110196 -1.40622,-0.276139 -1.893,-0.496269 -1.46031,-0.716842 -1.46032,-0.771965 -1.73074,-0.937388 z m 16.92882,-19.078797 0.27042,-0.05523 0.16226,-0.05523 0,-11.469338 -0.0541,-0.05523 0,-0.05523 -1.29806,-1.157961 -1.56849,-1.102812 -0.81128,-0.551419 -1.62257,-0.771965 -0.86537,-0.275696 -1.5144,0.110195 -1.5144,0.110195 -0.48677,0.275696 -0.54086,0.275697 -1.02762,0.496269 -0.7572,0.827115 -1.18989,1.65423 -0.86537,1.65423 -0.48677,1.65423 -0.10816,0.827115 -0.0541,1.76453 0.7572,3.69443 0.81129,2.040226 0.32451,0.385996 0.3786,0.385969 0.3786,0.385996 0.32452,0.385996 1.46031,0.661692 2.92062,0.606542 2.86654,-0.330846 2.75837,-1.268234 1.35216,-1.047167 z"
       style="fill:#000000;fill-opacity:1;fill-rule:nonzero;stroke:none" />
    <path
       inkscape:connector-curvature="0"
       id="path57"
       d="m 188.47466,53.491318 -0.0541,0.716841 -0.43269,1.102812 -0.3786,0.385996 -0.3786,0.330846 -0.86537,0.385995 -0.43268,0.05523 -0.43269,-0.05523 -0.81128,-0.330846 -0.3786,-0.330846 -0.3786,-0.330846 -0.43268,-1.047688 -0.16225,-0.661692 -0.0541,-6.065502 -0.0541,-6.230951 0,-6.175775 -0.0541,-6.065528 0.16226,-0.606542 0.48677,-0.937389 0.32451,-0.385995 0.3786,-0.275697 0.7572,-0.330846 0.43268,0 0.43269,0 0.7572,0.275697 0.32451,0.275696 0.3786,0.330846 0.48677,0.882265 0.21636,0.606542 0.0541,6.010379 0,6.230924 0.0541,6.230951 0.0541,6.010353 z m -5.73308,-34.738834 0,-0.661692 0.48677,-1.213085 0.3786,-0.496269 0.43269,-0.441145 1.08171,-0.496269 0.59494,-0.05523 0.64903,0.05523 1.02763,0.496269 0.48677,0.441145 0.43269,0.496269 0.43268,1.213085 0.0541,0.661692 -0.0541,0.661692 -0.43268,1.213111 -0.43269,0.496269 -0.48677,0.441119 -1.02763,0.49627 -0.64903,0 -0.59494,0 -1.08171,-0.49627 -0.43269,-0.441119 -0.3786,-0.496269 -0.48677,-1.213111 0,-0.661692 z"
       style="fill:#000000;fill-opacity:1;fill-rule:nonzero;stroke:none" />
    <path
       inkscape:connector-curvature="0"
       id="path59"
       d="m 196.47934,33.089163 -0.64903,-0.110195 -1.08171,-0.496269 -0.32451,-0.385996 -0.32452,-0.385996 -0.27043,-0.827115 -0.0541,-0.441119 0.0541,-0.441119 0.32452,-0.827116 0.32451,-0.441145 0.3786,-0.38597 1.08172,-0.496269 0.70311,0 3.51557,0 0,-10.090804 0.16225,-0.606568 0.48678,-0.992538 0.32451,-0.330846 0.3786,-0.275697 0.7572,-0.330846 0.43269,-0.05523 0.43268,0.05523 0.7572,0.275697 0.32451,0.275696 0.3786,0.330846 0.48677,0.882265 0.21636,0.551419 0,10.31135 6.0035,0 0.54086,0.165423 0.86537,0.551419 0.32451,0.330846 0.27043,0.385996 0.27043,0.771965 0,0.385996 0,0.441119 -0.32451,0.827115 -0.27043,0.330846 -0.32452,0.330846 -0.97354,0.551419 -0.59494,0.165423 -5.78716,0 -0.0541,4.962691 0.0541,5.183237 0.0541,5.128113 0,4.962691 -0.0541,0.716842 -0.43269,1.102811 -0.3786,0.385996 -0.43269,0.330846 -0.86537,0.385996 -0.43268,0 -0.43269,0 -0.81128,-0.385996 -0.3786,-0.330846 -0.32452,-0.330846 -0.48677,-0.992538 -0.10816,-0.716842 0,-5.017814 -0.0541,-5.183263 0,-10.201078 -3.67782,0 0,0 z"
       style="fill:#000000;fill-opacity:1;fill-rule:nonzero;stroke:none" />
    <path
       inkscape:connector-curvature="0"
       id="path61"
       d="m 238.72025,52.829626 0,0.05523 -0.0542,0 0.16225,0.441146 0.10809,0.827115 -0.10809,0.38597 -0.21642,0.716841 -0.54087,0.496269 -0.54084,0.44112 -0.81128,0.165423 -0.43271,0.05523 -0.86535,-0.165423 -0.48677,-0.220651 -0.59496,-0.606543 -0.48677,-0.606542 -0.48677,-0.716842 -0.37858,-0.716841 -1.29806,1.047687 -1.40625,0.992538 -0.70309,0.44112 -1.46031,0.441119 -0.7031,0.05523 -2.48795,0.110195 -2.43385,0 -1.24398,-0.110195 -2.32568,-0.827115 -1.08171,-0.716816 -0.86537,-0.716842 -1.40623,-1.59908 -0.54086,-0.882265 -0.43268,-0.937388 -0.64903,-1.985076 -0.16226,-0.992539 -0.10816,-1.047687 0.0541,-2.1505 0.10817,-1.102811 0.3786,-2.095376 0.70311,-2.040199 0.32451,-0.882265 0.48677,-0.827115 0.48678,-0.827115 0.48677,-0.882265 0.7572,-1.268235 0.81128,-1.102811 0.91945,-1.102837 1.08171,-0.882265 0.81129,-0.606543 0.7572,-0.551418 0.81128,-0.551393 0.81129,-0.551419 0.64903,-0.385995 1.02762,-0.38597 1.24397,-0.385996 1.24396,-0.275696 1.40625,-0.275723 1.29805,-0.05523 1.29806,0.05523 1.02761,0.330846 0.4327,-0.05523 0.86536,0.22065 0.37861,0.275723 0.43267,0.330846 0.64903,0.882239 0.21643,0.606568 0,4.356122 -0.0542,4.411298 0,2.205623 0.27044,4.356148 0.32452,2.205649 0.10808,0.606542 0.32452,0.771966 0.86535,1.543956 0.48677,0.771966 0.37861,0.661692 0.32451,0.551419 0.0542,0.275696 z m -7.9506,-4.411272 0.10809,-0.05523 0.10809,-0.110195 0.0542,-0.05523 0.10808,-0.05523 -0.3786,-1.929926 -0.37859,-3.970153 -0.0542,-2.040226 0.0542,-4.025302 0.0542,-3.529007 -0.54086,0 -0.70312,0.110195 -0.64903,0.165423 -0.7031,0.220651 -0.59496,0.165423 -0.59493,0.220651 -0.43268,0.165423 -0.32452,0.165423 -0.91946,0.44112 -1.56848,1.21311 -0.70311,0.661693 -0.64903,0.716815 -1.08171,1.599107 -0.43269,0.882238 -0.7572,1.76453 -0.48677,1.985076 -0.3786,1.874777 -0.0541,1.985076 0.10816,0.496269 0.16226,0.551419 0.21635,0.496269 0.10816,0.496269 0.32452,0.330846 0.32451,0.385996 0.3786,0.38597 0.3786,0.330846 0.54086,0.22065 0.54085,0.220651 1.1358,0.385996 1.08171,0 0.97355,0.05523 1.02762,0 0.97353,-0.275696 0.91948,-0.606569 0.91945,-0.661692 0.91944,-0.661692 0.86538,-0.716816 z"
       style="fill:#000000;fill-opacity:1;fill-rule:nonzero;stroke:none" />
    <path
       inkscape:connector-curvature="0"
       id="path63"
       d="m 250.99769,52.49878 0.48677,0.441145 0.64903,0.937388 0.16225,0.551419 0.0542,0.496269 -0.16225,0.882239 -0.21643,0.385996 -0.21643,0.385995 -0.75719,0.496269 -0.43268,0.220651 -0.48677,0.110195 -1.1358,-0.165423 -0.59493,-0.275722 -1.1358,-0.771965 -0.54087,-0.385996 -0.64902,-0.38597 -0.48677,-0.496269 -0.27042,-0.441145 -0.16226,-0.551393 -0.10809,-0.716842 0,-35.455675 0.10809,-0.606542 0.48677,-0.937389 0.32451,-0.330846 0.37859,-0.275722 0.75721,-0.330846 0.37859,0 0.3786,-0.05523 0.81129,0.275696 0.37861,0.275697 0.32451,0.330846 0.59493,0.882265 0.16226,0.551418 0,34.352838 0.21643,0.165423 0.16226,0.165423 0.54086,0.275696 z"
       style="fill:#000000;fill-opacity:1;fill-rule:nonzero;stroke:none" />
    <path
       inkscape:connector-curvature="0"
       id="path65"
       d="m 283.34092,50.679126 -0.32451,-0.827115 -0.0542,-0.827115 0,-0.496269 0.32451,-0.882239 0.27042,-0.330846 0.37861,-0.330846 0.86538,-0.330846 0.48677,-0.05523 0.48677,0.05523 0.97355,0.330846 0.43267,0.330846 1.1358,1.213085 1.29806,0.937415 1.46031,0.771965 1.56848,0.606542 1.62257,0.385996 1.62257,0.220651 1.67666,0.165423 1.56848,0.05523 0.97354,-0.330846 0.48677,-0.110195 0.37861,-0.165423 0.27042,-0.110196 0.27044,-0.165423 0.32452,-0.22065 0.37858,-0.330846 0.81128,-0.551419 0.27045,-0.44112 0.27042,-0.385995 0.27042,-0.38597 0.32451,-0.441145 0.54087,-1.764504 0,-0.827115 0,-0.441119 -0.0542,-0.496269 -0.16226,-0.441146 -0.16226,-0.385969 -0.37858,-0.882265 -0.37861,-0.44112 -0.37861,-0.385995 -0.32451,-0.385996 -0.32451,-0.441119 -0.59494,-0.330846 -0.54086,-0.385996 -0.59494,-0.330846 -0.64902,-0.275696 -2.54202,-0.771966 -2.21753,-0.441145 -2.10934,-0.38597 -1.94709,-0.496269 -0.91944,-0.275722 -1.78483,-0.882239 -0.86538,-0.551419 -0.86535,-0.606542 -1.62257,-1.874803 -0.81129,-1.213111 -0.27045,-0.496269 -0.10808,-0.275696 -0.10809,-0.330846 -0.0542,-0.551419 -0.0542,-0.496269 -0.0542,-0.496269 0,-0.937389 0.0542,-1.102811 0.10809,-0.937414 0.32451,-0.882239 0.37858,-0.827115 0.48677,-0.827115 0.64903,-0.827115 0.70313,-0.937415 0.91944,-0.992538 1.1358,-1.102811 1.29806,-0.771966 1.40624,-0.716842 1.46032,-0.441119 1.51438,-0.385996 1.5685,-0.165423 1.62257,-0.165423 1.51438,-0.05523 0.86538,0 0.43268,0.05523 0.4327,0.05523 1.40622,0.165423 1.29805,0.496269 1.29806,0.551393 1.35215,0.441145 0.7031,0.496269 0.70312,1.268235 0.0542,0.716842 -0.0542,0.441119 -0.37861,0.882265 -0.32451,0.385969 -0.37859,0.330846 -0.97354,0.330846 -0.64903,0.05523 -0.32451,0 -0.10809,-0.05523 -0.10808,0 -1.94701,-0.606568 -1.62257,-0.385996 -1.51441,-0.275696 -1.40622,-0.110195 -1.5144,0.110195 -1.56848,0.441119 -1.62257,0.606569 -2.00118,1.102811 -0.37858,0.496269 -0.37861,0.44112 -0.37861,0.385995 -0.37858,0.44112 -0.37861,0.771991 -0.21643,0.771965 0,0.771966 0.0542,0.385996 0.0542,0.330846 0.21642,0.330846 0.21643,0.275696 0.21643,0.330846 0.21643,0.330846 2.6502,1.543957 1.83893,0.385996 1.62257,0.385969 1.62257,0.330846 1.51438,0.441146 1.5144,0.385969 1.40622,0.551419 1.5685,0.661692 1.62257,0.882265 0.86536,0.551393 0.64903,0.771991 0.59496,0.771966 0.59493,0.716841 0.48677,0.606543 0.70312,1.378533 0.27042,0.771966 0.37861,1.543957 0.10809,1.59908 -0.0542,1.157961 -0.43268,2.260773 -0.37861,1.047688 -0.48677,1.102811 -1.24396,1.76453 -0.81129,0.716815 -0.54086,0.496269 -0.59494,0.496269 -1.13579,0.771992 -1.40622,0.771965 -1.56851,0.551419 -1.62257,0.38597 -1.78482,0.05523 -2.05525,-0.05523 -2.16343,-0.44112 -2.00116,-0.496269 -2.00118,-0.771965 -1.83892,-0.937415 -1.67664,-1.102811 -1.5685,-1.213111 -1.18986,-1.323384 z"
       style="fill:#000000;fill-opacity:1;fill-rule:nonzero;stroke:none" />
    <path
       inkscape:connector-curvature="0"
       id="path67"
       d="m 338.18379,68.710235 -0.0542,0.661692 -0.37861,1.047688 -0.37858,0.385996 -0.37861,0.38597 -0.81128,0.385995 -0.48677,0 -0.43268,0 -0.81129,-0.330846 -0.4327,-0.275696 -0.37858,-0.385996 -0.4327,-0.992538 -0.10809,-0.716842 0,-14.446926 -1.1358,0.38597 -2.2716,0.551419 -1.13579,0.110195 -1.35216,0.110195 -1.62257,-0.05523 -1.56847,-0.165423 -1.29806,-0.330846 -1.56847,-0.496269 -2.48795,-1.543957 -0.97354,-1.102811 -0.81129,-1.102812 -1.18989,-2.536495 -0.37859,-1.378533 -0.27044,-1.433658 -0.10809,-2.977614 0.16226,-1.543957 0.21643,-1.543931 0.70309,-2.922491 0.48678,-1.323384 0.4327,-0.992538 1.18987,-1.764503 0.70312,-0.771966 0.81128,-0.716841 1.73074,-1.157962 0.97354,-0.496269 0.97354,-0.441119 2.00118,-0.661692 1.0817,-0.220651 1.08173,-0.165423 2.10934,-0.110195 0.97355,0.05523 1.02761,0.165423 1.83892,0.496269 0.86538,0.385996 0.48677,-0.330846 1.0817,-0.110196 0.59494,0.165423 0.59496,0.275697 0.86535,1.047688 0.27045,0.827115 0,38.102417 0,0 z m -15.63076,-19.354493 1.35215,0.496269 2.70427,0.496269 1.35215,-0.05523 1.35213,-0.110196 2.54204,-0.827115 1.24396,-0.716815 0,-14.502102 -0.27042,-0.165423 -0.10808,-0.275697 -0.7572,-0.275696 -1.62257,-0.385996 -0.86537,-0.110195 -0.86536,0 -1.67666,0.165423 -0.81129,0.165423 -0.75719,0.275697 -1.40624,0.716841 -0.7031,0.496269 -0.64903,0.551419 -1.02763,1.268235 -0.43268,0.771965 -0.48677,1.102837 -0.54087,2.260773 -0.0542,1.213111 0.0542,2.371046 0.32452,2.315922 0.27042,0.385996 0.16225,0.441119 0.27045,0.385996 0.27042,0.441119 0.54086,0.606568 0.32452,0.220651 0.27042,0.275697 z"
       style="fill:#000000;fill-opacity:1;fill-rule:nonzero;stroke:none" />
    <path
       inkscape:connector-curvature="0"
       id="path69"
       d="m 346.18845,33.30971 -0.86535,-0.496269 -0.54086,-0.716816 -0.32452,-0.661692 -0.10808,-0.716842 0.0542,-0.496269 0.32451,-0.827115 0.32451,-0.330846 0.37861,-0.385996 0.91945,-0.385969 0.59496,0 0.91945,0.110195 1.24396,0.496269 1.24399,0.661692 0.81128,0.771965 2.00115,-1.543957 2.00118,-1.213084 1.02764,-0.496269 2.10934,-0.551419 1.0817,-0.05523 0.70313,0.05523 1.0817,0.275696 1.1899,0.385996 1.13579,0.606542 1.1358,0.661692 0.91945,0.992538 0.37861,0.49627 0.48677,1.21311 0,0.661692 0,0.496269 -0.37861,0.882265 -0.27042,0.38597 -0.37861,0.275722 -0.86538,0.330846 -0.48677,0.05523 -0.64902,-0.110195 -0.59494,-0.275722 -0.48677,-0.44112 -0.54086,-0.496269 -0.54084,-0.441119 -0.59496,-0.441146 -0.59494,-0.330846 -0.70312,-0.05523 -0.91945,0.110195 -1.02763,0.496269 -1.02761,0.551418 -1.02764,0.716842 -1.02764,0.771966 -0.91944,0.882264 -0.91945,0.882239 -0.70312,0.716842 0,16.983421 -0.0542,0.716842 -0.48677,1.047687 -0.32451,0.38597 -0.43268,0.385996 -0.81128,0.385996 -0.48677,0 -0.43268,0 -0.81128,-0.385996 -0.37861,-0.275696 -0.32452,-0.385996 -0.48677,-0.992538 -0.10808,-0.716842 0,-17.42454 0,-0.110196 -0.0542,-0.110195 0,-0.330846 0,-0.275722 0.0542,-0.165423 0,-0.165423 0,-1.819653 -0.21643,-0.110196 -0.21643,-0.110195 z"
       style="fill:#000000;fill-opacity:1;fill-rule:nonzero;stroke:none" />
    <path
       inkscape:connector-curvature="0"
       id="path71"
       d="m 373.66398,33.089163 -0.64903,-0.110195 -1.02763,-0.496269 -0.37858,-0.385996 -0.32452,-0.385996 -0.27044,-0.827115 -0.0542,-0.441119 0.0542,-0.441119 0.32451,-0.827116 0.32451,-0.441145 0.37861,-0.38597 1.1358,-0.496269 0.64903,0 3.51556,0 0,-10.090804 0.16226,-0.606568 0.48677,-0.992538 0.32451,-0.330846 0.37861,-0.275697 0.75719,-0.330846 0.4327,-0.05523 0.43268,0.05523 0.75719,0.275697 0.32451,0.275722 0.37861,0.330846 0.54087,0.882239 0.16226,0.551419 0,10.311376 6.0035,0 0.54084,0.165423 0.86538,0.551393 0.32452,0.330846 0.27042,0.385996 0.27044,0.771965 0,0.385996 0,0.441119 -0.32451,0.827115 -0.27045,0.330846 -0.32451,0.330846 -0.97354,0.551419 -0.59494,0.165423 -5.78715,0 -0.0542,4.962691 0.0542,5.183263 0.0542,5.128113 0,4.962691 -0.0542,0.716816 -0.43271,1.102837 -0.37858,0.38597 -0.4327,0.330846 -0.81129,0.385996 -0.43267,0 -0.43268,0 -0.81129,-0.385996 -0.4327,-0.330846 -0.32451,-0.330846 -0.48677,-0.992538 -0.10809,-0.716816 0,-5.01784 -0.0542,-5.183263 0,-10.201078 -3.67782,0 0,0 z"
       style="fill:#000000;fill-opacity:1;fill-rule:nonzero;stroke:none" />
    <path
       inkscape:connector-curvature="0"
       id="path73"
       d="m 135.79522,90.38065 0.32452,0 0.16225,0.165423 0.21635,0.220651 0.0541,0.220651 0,0.220651 -0.16226,0.220651 -0.16226,0.220651 -0.27042,0.110195 -0.81129,0 -0.81128,0.05523 -0.81129,-0.05523 -0.81128,0 -0.27043,-0.05523 -0.21635,-0.165423 -0.10816,-0.220651 -0.0541,-0.275696 0.0541,-0.220651 0.16225,-0.220651 0.21635,-0.165423 0.27043,-0.05523 0.48677,0 0.21636,0 0.21635,0 0,-7.388886 -0.97354,0 -0.32452,-0.05523 -0.16226,-0.165423 -0.16225,-0.22065 0,-0.275723 0.0541,-0.220651 0.10816,-0.220651 0.21636,-0.165423 0.32451,-0.05523 3.19105,0 0.27043,0.110195 0.16226,0.220651 0.10816,0.165423 0,0.22065 0,0.220651 -0.16226,0.220651 -0.16225,0.165423 -0.27043,0.05523 -0.91946,0 0,7.444036 0.3786,0 0.21635,-0.05523 0.21635,0 z"
       style="fill:#000000;fill-opacity:1;fill-rule:nonzero;stroke:none" />
    <path
       inkscape:connector-curvature="0"
       id="path75"
       d="m 139.20262,85.859105 -0.32451,-0.05523 -0.16226,-0.165423 -0.16226,-0.220651 0,-0.220651 0,-0.275723 0.16226,-0.22065 0.21635,-0.165423 0.32451,-0.05523 0.86537,0 0,-2.646769 0.10817,-0.330846 0.10816,-0.22065 0.21635,-0.110196 0.21635,-0.05523 0.16226,0.05523 0.16225,0.110196 0.21636,0.165423 0.0541,0.330846 0,2.701918 1.5144,0 0.27043,0.110195 0.16225,0.165423 0.10817,0.220651 0,0.22065 0,0.220651 -0.16226,0.165423 -0.16226,0.165423 -0.27042,0.110195 -1.46032,0 0,1.323385 0,1.378533 0.0541,1.378508 0,1.268261 -0.0541,0.385969 -0.16225,0.220651 -0.21636,0.165423 -0.21635,0.05523 -0.21635,-0.05523 -0.21635,-0.165423 -0.16226,-0.220651 -0.0541,-0.330846 0,-1.323384 0,-1.378508 0,-2.701918 -0.91946,0 0,0 z"
       style="fill:#000000;fill-opacity:1;fill-rule:nonzero;stroke:none" />
    <path
       inkscape:connector-curvature="0"
       id="path77"
       d="m 144.44893,81.006688 0.0541,-0.330846 0.16226,-0.220651 0.21635,-0.110195 0.16226,-0.05523 0.21635,0.05523 0.16226,0.110195 0.16225,0.165423 0.10817,0.330846 0,2.536495 -0.0541,0.38597 -0.16225,0.220651 -0.16226,0.165423 -0.27043,0 -0.16225,0 -0.21636,-0.165423 -0.16225,-0.220651 -0.0541,-0.330846 0,-2.536469 0,0 z"
       style="fill:#000000;fill-opacity:1;fill-rule:nonzero;stroke:none" />
    <path
       inkscape:connector-curvature="0"
       id="path79"
       d="m 146.99096,90.601223 -0.10817,-0.330846 0,-0.220651 0.0541,-0.220651 0.10816,-0.165423 0.16226,-0.110195 0.21635,-0.05523 0.27043,0.05523 0.21635,0.165423 0.3786,0.44112 0.48677,0.275722 0.48677,0.275696 0.54086,0.05523 0.32451,-0.110195 0.10817,-0.05523 0.0541,-0.05523 0.0541,-0.05523 0,0 0.0541,-0.05523 0.0541,-0.05523 0.0541,-0.05523 0.0541,-0.110195 0.0541,-0.05523 0,-0.05523 0,-0.110195 0.0541,-0.05523 0,-0.165423 0,-0.05523 0,-0.110195 -0.10816,-0.275696 0,-0.05523 -0.10817,-0.110195 -0.0541,-0.110195 -0.3786,-0.275723 -0.43268,-0.110195 -0.37861,-0.110195 -0.37859,-0.110195 -0.32452,-0.165423 -0.3786,-0.220651 -0.32451,-0.220651 -0.32452,-0.44112 -0.21635,-0.385995 -0.10816,-0.496269 0.0541,-0.551393 0.10817,-0.496269 0.21635,-0.496269 0.32451,-0.385996 0.3786,-0.330846 0.43269,-0.165423 0.64903,-0.110195 0.64902,0.110195 0.64903,0.165423 0.59494,0.275697 0.27043,0.22065 0.0541,0.275723 0.0541,0.275696 -0.10816,0.220651 -0.10817,0.165423 -0.27042,0.110195 -0.21636,0.05523 -0.32451,-0.110195 -0.3786,-0.220651 -0.3786,-0.05523 -0.43269,-0.05523 -0.37859,0.05523 -0.0541,0 -0.0541,0 -0.0541,0.05523 -0.0541,0 -0.16226,0.220651 -0.10816,0.220651 -0.0541,0.165423 0,0.275696 0.0541,0.110195 0.0541,0.110195 0.0541,0.05523 0,0.05523 0.0541,0.05523 0.0541,0.05523 0.3786,0.220651 0.43268,0.165423 0.43269,0.110195 0.43268,0.165423 0.43269,0.165423 0.32451,0.275722 0.32452,0.275697 0.27043,0.441119 0.16225,0.496269 0.0541,0.882265 -0.10817,0.441119 -0.16225,0.385996 -0.54086,0.661692 -0.32451,0.275696 -0.21636,0.165423 -0.27043,0.05523 -0.21635,0.110195 -0.21635,0 -0.81141,-0.05523 -0.81129,-0.330846 -0.7572,-0.496269 -0.54085,-0.661692 z"
       style="fill:#000000;fill-opacity:1;fill-rule:nonzero;stroke:none" />
    <path
       inkscape:connector-curvature="0"
       id="path81"
       d="m 159.647,85.859105 -0.27043,-0.05523 -0.21635,-0.165423 -0.16225,-0.220651 0,-0.220651 0.0541,-0.275697 0.10816,-0.22065 0.21635,-0.165423 0.32452,-0.05523 0.86537,0 0,-2.646769 0.10816,-0.330846 0.16226,-0.22065 0.16225,-0.110196 0.21636,-0.05523 0.16225,0.05523 0.21635,0.110196 0.16226,0.165423 0.10816,0.330846 0,2.701892 1.46032,0 0.27043,0.110195 0.16225,0.165423 0.10817,0.220651 0.0541,0.22065 -0.0541,0.220651 -0.10817,0.165423 -0.21635,0.165423 -0.27042,0.110195 -1.40623,0 -0.0541,1.323385 0.0541,1.378533 0,1.378534 0,1.268235 -0.0541,0.385995 -0.16225,0.220651 -0.21636,0.165423 -0.21635,0.05523 -0.21635,-0.05523 -0.16226,-0.165423 -0.16225,-0.220651 -0.10817,-0.330846 0,-1.323384 0,-1.378534 0,-2.701918 -0.91945,0 0,0 z"
       style="fill:#000000;fill-opacity:1;fill-rule:nonzero;stroke:none" />
    <path
       inkscape:connector-curvature="0"
       id="path83"
       d="m 166.51588,91.318065 -0.0541,0.330846 -0.16226,0.220651 -0.16226,0.165423 -0.21635,0 -0.21635,0 -0.21635,-0.165423 -0.16226,-0.165423 -0.0541,-0.330846 0,-9.429112 0.0541,-0.275723 0.16226,-0.22065 0.16226,-0.110196 0.21635,-0.05523 0.16226,0 0.21635,0.165423 0.16225,0.165423 0.10817,0.275722 0,3.970152 0.21635,-0.22065 0.21635,-0.165424 0.32451,-0.22065 0.27043,-0.165423 0.27043,-0.110196 0.32452,-0.110195 0.27042,-0.05523 0.32452,0 0.27042,0.05523 0.27043,0.110195 0.43269,0.165423 0.3786,0.330846 0.32451,0.330847 0.21635,0.441119 0.21636,0.441119 0.10816,0.496269 0.10816,0.496269 0.0541,0.496269 0,0.827115 0,0.771992 0,0.771965 0,0.827115 -0.0541,0.330846 -0.16226,0.220651 -0.16225,0.165423 -0.27043,0.05523 -0.16226,-0.05523 -0.21635,-0.110195 -0.16226,-0.220651 -0.10816,-0.330846 0,-1.59908 0,-0.771992 0,-0.827115 -0.0541,-0.606542 -0.16226,-0.496269 -0.21635,-0.496269 -0.43268,-0.330846 -0.3786,-0.110195 -0.3786,0.110195 -0.27043,0.110195 -0.32451,0.275722 -0.21636,0.220651 -0.27042,0.330846 -0.21635,0.330846 -0.21636,0.275697 -0.0541,0.05523 -0.0541,0.05523 0,0.05523 -0.0541,0 0,3.30846 0,0 z"
       style="fill:#000000;fill-opacity:1;fill-rule:nonzero;stroke:none" />
    <path
       inkscape:connector-curvature="0"
       id="path85"
       d="m 177.92796,89.829258 0.32451,-0.05523 0.21635,0.05523 0.21635,0.110195 0.10817,0.165423 0.10816,0.275696 -0.0541,0.220651 -0.10817,0.275697 -0.27043,0.22065 -0.48677,0.275697 -0.59494,0.275722 -0.59494,0.275696 -0.59494,0.110196 -0.59494,0.05523 -0.59495,-0.05523 -0.59494,-0.165423 -0.54086,-0.330846 -0.59494,-0.551393 -0.3786,-0.771992 -0.27043,-0.882238 -0.10816,-0.882265 0.0541,-0.882265 0.27043,-0.827115 0.3786,-0.827115 0.59495,-0.551393 0.75719,-0.496269 0.81129,-0.275722 0.81128,-0.220651 0.86538,0.165423 0.43268,0.110195 0.32451,0.330846 0.32452,0.330846 0.21635,0.385996 0.16226,0.441119 0.0541,0.496269 0,0.441146 -0.21635,0.441119 -0.27043,0.44112 -0.48677,0.385995 -0.48677,0.330846 -0.59494,0.220651 -0.54086,0.220651 -0.59494,0.165423 -0.54086,0.165423 -0.48677,0.110195 -0.16226,0.05523 -0.16226,-0.05523 0.27043,0.551419 0.3786,0.38597 0.54086,0.275722 0.59494,0 0.54086,-0.110195 0.54086,-0.220651 0.54085,-0.275722 0.48677,-0.330846 z m -3.0288,-3.584183 -0.48677,0.385996 -0.32451,0.551418 -0.27043,0.551393 -0.0541,0.661692 0.10817,-0.110195 0.16225,-0.05523 0.54086,-0.165423 0.27043,-0.110195 0.32451,-0.05523 0.21635,-0.05523 0.27043,-0.110195 0.32452,-0.110195 0.32451,-0.110195 0.32451,-0.165423 0.32452,-0.165423 0.21635,-0.165423 0.16226,-0.220651 -0.0541,-0.496269 -0.21635,-0.275696 -0.27043,-0.165423 -0.3786,-0.05523 -0.43268,0.05523 -0.3786,0.110195 -0.3786,0.165423 -0.32452,0.110195 z"
       style="fill:#000000;fill-opacity:1;fill-rule:nonzero;stroke:none" />
    <path
       inkscape:connector-curvature="0"
       id="path87"
       d="m 187.17661,90.987219 0.27043,0.275696 0.0541,0.275697 0.0541,0.22065 -0.10817,0.220651 -0.10816,0.220651 -0.27043,0.05523 -0.21635,0.05523 -0.32451,-0.110195 -0.27043,-0.220651 -0.10816,-0.110195 -0.16226,-0.05523 -0.10816,-0.165423 -0.10817,-0.110195 0,-0.165423 -0.0541,-0.165423 0,-9.373963 0.0541,-0.330846 0.16226,-0.165423 0.21635,-0.165423 0.16226,0 0.21635,0 0.16226,0.110195 0.16225,0.165423 0.10817,0.330846 0,9.098266 0.0541,0 0.0541,0.05523 0.10816,0.05523 z"
       style="fill:#000000;fill-opacity:1;fill-rule:nonzero;stroke:none" />
    <path
       inkscape:connector-curvature="0"
       id="path89"
       d="m 190.47583,91.262915 0,0.385996 -0.21635,0.220651 -0.16225,0.165423 -0.21636,0 -0.21635,0 -0.21635,-0.165423 -0.16226,-0.220651 -0.0541,-0.330846 0,-1.599107 -0.0541,-1.65423 0,-1.59908 0,-1.599081 0.10816,-0.330846 0.16226,-0.220651 0.16225,-0.110195 0.21635,-0.05523 0.16226,0.05523 0.21635,0.110195 0.16226,0.165423 0.10816,0.330846 0,1.599081 0,1.59908 0,1.654231 0,1.599106 z m -1.40622,-9.153415 0.0541,-0.38597 0.16226,-0.275722 0.21635,-0.220651 0.32451,-0.05523 0.27043,0.05523 0.27043,0.220651 0.16226,0.275722 0.0541,0.38597 -0.0541,0.330846 -0.16226,0.275722 -0.27043,0.220651 -0.27043,0 -0.32451,0 -0.21635,-0.220651 -0.16226,-0.275722 -0.0541,-0.330846 z"
       style="fill:#000000;fill-opacity:1;fill-rule:nonzero;stroke:none" />
    <path
       inkscape:connector-curvature="0"
       id="path91"
       d="m 192.477,85.859105 -0.32451,-0.05523 -0.21635,-0.165423 -0.10816,-0.220651 -0.0541,-0.220651 0.0541,-0.275723 0.10816,-0.22065 0.21635,-0.165423 0.32451,-0.05523 0.86537,0 0,-2.646769 0.10817,-0.330846 0.16225,-0.22065 0.16226,-0.110196 0.21635,-0.05523 0.21635,0.05523 0.16226,0.110196 0.16226,0.165423 0.10816,0.330846 0,2.701918 1.46031,0 0.27043,0.110195 0.16226,0.165423 0.10816,0.220651 0.0541,0.22065 -0.0541,0.220651 -0.10816,0.165423 -0.16226,0.165423 -0.32451,0.110195 -1.40623,0 0,1.323385 0,1.378533 0,1.378508 0,1.268261 0,0.385969 -0.21635,0.220651 -0.21635,0.165423 -0.21635,0.05523 -0.16226,-0.05523 -0.21635,-0.165423 -0.16226,-0.220651 -0.0541,-0.330846 0,-1.323384 -0.0541,-1.378508 0,-2.701918 -0.86537,0 0,0 z"
       style="fill:#000000;fill-opacity:1;fill-rule:nonzero;stroke:none" />
    <path
       inkscape:connector-curvature="0"
       id="path93"
       d="m 198.42643,85.859105 -0.32452,-0.05523 -0.16225,-0.165423 -0.16226,-0.220651 0,-0.220651 0,-0.275723 0.16226,-0.22065 0.21635,-0.165423 0.32451,-0.05523 0.86537,0 0,-2.646769 0.10816,-0.330846 0.16226,-0.22065 0.16226,-0.110196 0.21635,-0.05523 0.16225,0.05523 0.21636,0.110196 0.16225,0.165423 0.10817,0.330846 0,2.701918 1.46031,0 0.27043,0.110195 0.16226,0.165423 0.10816,0.220651 0.0541,0.22065 -0.0541,0.220651 -0.10816,0.165423 -0.21636,0.165423 -0.27042,0.110195 -1.40623,0 -0.0541,1.323385 0.0541,1.378533 0,1.378508 0,1.268261 -0.0541,0.385969 -0.16225,0.220651 -0.21635,0.165423 -0.21636,0.05523 -0.21635,-0.05523 -0.16225,-0.165423 -0.16226,-0.220651 -0.10816,-0.330846 0,-1.323384 0,-1.378508 0,-2.701918 -0.91946,0 0,0 z"
       style="fill:#000000;fill-opacity:1;fill-rule:nonzero;stroke:none" />
    <path
       inkscape:connector-curvature="0"
       id="path95"
       d="m 205.67391,90.987219 0.21635,0.275696 0.10816,0.275697 0,0.22065 -0.10816,0.220651 -0.10817,0.220651 -0.21635,0.05523 -0.27042,0.05523 -0.27043,-0.110195 -0.27043,-0.220651 -0.16226,-0.110195 -0.16226,-0.05523 -0.10816,-0.165423 -0.0541,-0.110195 -0.0541,-0.165423 -0.0541,-0.165423 0,-9.373963 0.10816,-0.330846 0.16226,-0.165423 0.16225,-0.165423 0.21636,0 0.16225,0 0.21635,0.110195 0.16226,0.165423 0.10816,0.330846 0,9.098266 0.0541,0 0.0541,0.05523 0.10817,0.05523 z"
       style="fill:#000000;fill-opacity:1;fill-rule:nonzero;stroke:none" />
    <path
       inkscape:connector-curvature="0"
       id="path97"
       d="m 212.54279,89.829258 0.32451,-0.05523 0.27043,0.05523 0.21635,0.110195 0.10816,0.165423 0.0541,0.275696 -0.0541,0.220651 -0.10816,0.275697 -0.21635,0.22065 -0.54086,0.275723 -0.59494,0.275696 -0.54086,0.275696 -0.64902,0.110196 -0.59495,0.05523 -0.59494,-0.05523 -0.54086,-0.165423 -0.54085,-0.330846 -0.59495,-0.551393 -0.43268,-0.771992 -0.27043,-0.882238 -0.0541,-0.882265 0,-0.882265 0.27042,-0.827115 0.37861,-0.827115 0.64902,-0.551393 0.70312,-0.496269 0.81128,-0.275722 0.86537,-0.220651 0.81129,0.165423 0.43268,0.110195 0.32452,0.330846 0.32451,0.330846 0.21635,0.385996 0.21635,0.441119 0.0541,0.496269 -0.0541,0.441146 -0.16225,0.441119 -0.32452,0.44112 -0.43268,0.385995 -0.54086,0.330846 -0.54086,0.220651 -0.59496,0.220651 -0.59494,0.165423 -0.54085,0.165423 -0.43269,0.110195 -0.21635,0.05523 -0.16226,-0.05523 0.27043,0.551419 0.43269,0.38597 0.48677,0.275722 0.64903,0 0.54085,-0.110195 0.54086,-0.220651 0.54086,-0.275722 0.43268,-0.330846 z m -2.97472,-3.584183 -0.54085,0.385996 -0.32452,0.551418 -0.21635,0.551393 -0.0541,0.661692 0.10816,-0.110195 0.10816,-0.05523 0.54086,-0.165423 0.32452,-0.110195 0.27042,-0.05523 0.21636,-0.05523 0.27042,-0.110195 0.3786,-0.110195 0.32452,-0.110195 0.32451,-0.165423 0.27043,-0.165423 0.27043,-0.165423 0.10816,-0.220651 0,-0.496269 -0.27043,-0.275696 -0.27043,-0.165423 -0.3786,-0.05523 -0.3786,0.05523 -0.43268,0.110195 -0.3786,0.165423 -0.27043,0.110195 z"
       style="fill:#000000;fill-opacity:1;fill-rule:nonzero;stroke:none" />
    <path
       inkscape:connector-curvature="0"
       id="path99"
       d="m 221.03424,85.859105 -0.32452,-0.05523 -0.21635,-0.165423 -0.10816,-0.220651 -0.0541,-0.220651 0.0541,-0.275723 0.16226,-0.22065 0.16225,-0.165423 0.3786,-0.05523 0.86537,0 0,-2.646769 0.0541,-0.330846 0.16225,-0.22065 0.16226,-0.110196 0.21635,-0.05523 0.21635,0.05523 0.16226,0.110196 0.16226,0.165423 0.10816,0.330846 0,2.701918 1.46031,0 0.27043,0.110195 0.16226,0.165423 0.16226,0.220651 0,0.22065 -0.0541,0.220651 -0.10816,0.165423 -0.16226,0.165423 -0.27043,0.110195 -1.46031,0 0,1.323385 0,1.378533 0,1.378508 0,1.268261 0,0.385969 -0.21635,0.220651 -0.21635,0.165423 -0.16226,0.05523 -0.21635,-0.05523 -0.21635,-0.165423 -0.16226,-0.220651 -0.0541,-0.330846 0,-1.323384 0,-1.378508 0,-2.701918 -0.91946,0 0,0 z"
       style="fill:#000000;fill-opacity:1;fill-rule:nonzero;stroke:none" />
    <path
       inkscape:connector-curvature="0"
       id="path101"
       d="m 227.84903,91.318065 0,0.330846 -0.16226,0.220651 -0.21643,0.165423 -0.21642,0 -0.21643,0 -0.21635,-0.165423 -0.16226,-0.165423 -0.0541,-0.330846 0,-9.429112 0.0541,-0.275723 0.16226,-0.22065 0.21635,-0.110196 0.16226,-0.05523 0.21642,0 0.16226,0.165423 0.16226,0.165423 0.10808,0.275722 0,3.970152 0.27042,-0.22065 0.16226,-0.165424 0.32451,-0.22065 0.27045,-0.165423 0.27042,-0.110196 0.37861,-0.110195 0.27042,-0.05523 0.27042,0 0.27044,0.05523 0.32452,0.110195 0.43267,0.165423 0.32452,0.330846 0.32451,0.330847 0.21643,0.441119 0.21643,0.441119 0.16225,0.496269 0.0542,0.496269 0.0542,0.496269 0,0.827115 0,0.771992 0,0.771965 0,0.827115 -0.0542,0.330846 -0.10808,0.220651 -0.21643,0.165423 -0.21643,0.05523 -0.21642,-0.05523 -0.21643,-0.110195 -0.16226,-0.220651 -0.0542,-0.330846 0,-1.59908 0,-0.771992 0,-0.827115 -0.0542,-0.606542 -0.16226,-0.496269 -0.27042,-0.496269 -0.4327,-0.330846 -0.37858,-0.110195 -0.32452,0.110195 -0.32451,0.110195 -0.27045,0.275696 -0.27042,0.220651 -0.21642,0.330846 -0.27042,0.330846 -0.21643,0.275723 0,0.05523 -0.0542,0.05523 -0.0542,0.05523 -0.0542,0 0,3.30846 0,0 z"
       style="fill:#000000;fill-opacity:1;fill-rule:nonzero;stroke:none" />
    <path
       inkscape:connector-curvature="0"
       id="path103"
       d="m 235.74553,91.262915 -0.0542,0.385996 -0.16226,0.220651 -0.21643,0.165423 -0.21643,0 -0.21642,0 -0.16226,-0.165423 -0.16226,-0.220651 -0.0542,-0.330846 -0.0542,-1.599107 0,-1.65423 0,-1.59908 0,-1.599081 0.0542,-0.330846 0.16226,-0.220651 0.21643,-0.110195 0.16225,-0.05523 0.21643,0.05523 0.16226,0.110195 0.16226,0.165423 0.10808,0.330846 0,1.599081 0,1.59908 0.0542,1.654231 0,1.599106 z m -1.40622,-9.153415 0,-0.38597 0.21643,-0.275722 0.21642,-0.220651 0.27042,-0.05523 0.32452,0.05523 0.21643,0.220651 0.21642,0.275722 0,0.38597 0,0.330846 -0.21642,0.275722 -0.21643,0.220651 -0.32452,0 -0.27042,0 -0.21642,-0.220651 -0.21643,-0.275722 0,-0.330846 z"
       style="fill:#000000;fill-opacity:1;fill-rule:nonzero;stroke:none" />
    <path
       inkscape:connector-curvature="0"
       id="path105"
       d="m 243.31754,91.318065 -0.0542,0.330846 -0.16226,0.220651 -0.16226,0.165423 -0.27044,0.05523 -0.21643,0 -0.16226,-0.165423 -0.16225,-0.220651 -0.0542,-0.330846 0,-0.771992 -0.0542,-0.771965 0,-1.543957 0,-1.102811 0,-0.606543 -0.0542,-0.551418 -0.10808,-0.220651 -0.16226,-0.05523 -0.16226,-0.05523 -0.16225,0 -0.54084,0 -0.48677,0.275696 -0.48678,0.275723 -0.32451,0.496269 -0.16226,0.275696 -0.10808,0.165423 -0.10809,0.220651 -0.0542,0.385996 0,1.709354 0,0.827115 0.0542,0.882264 -0.0542,0.385996 -0.16226,0.220651 -0.21642,0.165423 -0.21643,0 -0.21643,0 -0.16226,-0.165423 -0.16225,-0.220651 -0.10809,-0.330846 0,-1.543957 0,-0.771965 0,-0.771992 0,-1.488807 0,-1.59908 0.10809,-0.330846 0.16225,-0.165423 0.16226,-0.165423 0.21643,0 0.16226,0 0.21642,0.165423 0.16226,0.165423 0.0542,0.275696 0,0.165423 0.48677,-0.38597 0.54087,-0.275696 0.59496,-0.220651 0.54084,-0.05523 0.54086,0.05523 0.54087,0.220651 0.48677,0.385996 0.32451,0.551392 0.10809,0.275723 0.0542,0.275696 0,0.330846 0,0.385996 0.0542,0.330846 -0.0542,0.38597 0,0.385995 0,0.330846 0,1.985077 0,1.157961 0,0 z"
       style="fill:#000000;fill-opacity:1;fill-rule:nonzero;stroke:none" />
    <path
       inkscape:connector-curvature="0"
       id="path107"
       d="m 245.53504,95.177918 -0.21643,-0.275696 -0.0542,-0.220651 0,-0.220651 0.0542,-0.220651 0.10809,-0.165423 0.21643,-0.110195 0.21643,-0.05523 0.32451,0.05523 0.16226,0.110195 0.16225,0.110195 0.10809,0.110195 0.16226,0.05523 0.16225,0.05523 0.10809,0.05523 0.16226,0.05523 0.21643,0.05523 0.27042,0.05523 0.32451,0 0.32451,0 0.32452,-0.05523 0.27044,-0.110196 0.27042,-0.165423 0.27042,-0.22065 0.16226,-0.275697 0.10809,-0.220651 0.0542,-0.275722 0,-0.275696 0,-0.220651 0,-1.102812 -0.27042,0.110195 -0.21643,0.110196 -0.27042,0.05523 -0.27042,0.110196 -0.32451,0.05523 -0.37861,0.05523 -0.37861,0 -0.37858,-0.05523 -0.75722,-0.22065 -0.59493,-0.496269 -0.48678,-0.606543 -0.32451,-0.716842 -0.21643,-0.771965 -0.0542,-0.882265 0.0542,-0.827115 0.21643,-0.771965 0.21643,-0.606569 0.37861,-0.496269 0.43267,-0.496269 0.54087,-0.330846 0.54084,-0.220651 0.59496,-0.110195 0.59493,0 0.54087,0.220651 0.48677,0.275722 0.37858,0.275697 0.10809,-0.220651 0.16225,-0.110195 0.16226,-0.110195 0.21643,0 0.16226,0.05523 0.16225,0.110196 0.16226,0.165423 0.0542,0.275696 0,7.223489 0,0.827115 -0.21643,0.716816 -0.32451,0.606568 -0.64903,0.551393 -0.27042,0.220651 -0.37861,0.165423 -0.32451,0.110195 -0.32452,0.05523 -0.75719,0.05523 -0.64902,-0.110195 -0.48678,-0.165423 -0.3786,-0.165423 -0.37859,-0.220651 -0.3786,-0.220651 z m 4.16459,-5.072964 0.0542,0 0.0542,0 0,-3.087888 0,0 0,0 -0.32449,-0.330846 -0.37878,-0.275722 -0.43268,-0.275696 -0.4327,-0.165423 -0.32452,0.05523 -0.37858,0.05523 -0.16226,0.05523 -0.10808,0.05523 -0.27045,0.110195 -0.32451,0.44112 -0.43268,0.882264 -0.0542,0.44112 0,0.937414 0.37861,1.047662 0.0542,0.110195 0.10809,0.110195 0.0542,0.110195 0.10808,0.110196 0.75719,0.275722 1.40622,-0.165423 0.64903,-0.496269 z"
       style="fill:#000000;fill-opacity:1;fill-rule:nonzero;stroke:none" />
    <path
       inkscape:connector-curvature="0"
       id="path109"
       d="m 252.51209,90.601223 -0.10808,-0.330846 0.0542,-0.220651 0.0542,-0.220651 0.10809,-0.165423 0.16225,-0.110195 0.21643,-0.05523 0.27042,0.05523 0.21643,0.165423 0.37858,0.44112 0.48677,0.275722 0.48677,0.275696 0.54087,0.05523 0.32451,-0.110195 0.10809,-0.05523 0.0542,-0.05523 0.0542,-0.05523 0,0 0.0542,-0.05523 0,-0.05523 0.0542,-0.05523 0.10809,-0.110195 0.0542,-0.05523 0,-0.05523 0,-0.110195 0.0542,-0.05523 0,-0.165423 0,-0.05523 0,-0.110195 -0.10809,-0.275696 -0.0542,-0.05523 -0.0542,-0.110195 -0.0542,-0.110195 -0.43268,-0.275723 -0.3786,-0.110195 -0.37859,-0.110195 -0.37861,-0.110195 -0.32451,-0.165423 -0.37861,-0.220651 -0.32451,-0.220651 -0.32452,-0.44112 -0.21642,-0.385995 -0.10809,-0.496269 0,-0.551393 0.16226,-0.496269 0.21643,-0.496269 0.32451,-0.385996 0.37861,-0.330846 0.43267,-0.165423 0.64903,-0.110195 0.64903,0.110195 0.64903,0.165423 0.59493,0.275697 0.27045,0.22065 0.0542,0.275723 0.0542,0.275696 -0.10809,0.220651 -0.16225,0.165423 -0.21643,0.110195 -0.21643,0.05523 -0.32451,-0.110195 -0.37859,-0.220651 -0.3786,-0.05523 -0.43268,-0.05523 -0.37861,0.05523 -0.0542,0 -0.0542,0 -0.0542,0.05523 -0.0542,0 -0.16226,0.220651 -0.10809,0.220651 -0.0542,0.165423 0,0.275696 0.0542,0.110195 0.0542,0.110195 0,0.05523 0.0542,0.05523 0.0542,0.05523 0.0542,0.05523 0.37858,0.220651 0.4327,0.165423 0.43268,0.110195 0.43268,0.165423 0.3786,0.165423 0.37861,0.275722 0.32452,0.275697 0.21642,0.441119 0.16226,0.496269 0.0542,0.882265 -0.10808,0.441119 -0.10809,0.385996 -0.54084,0.661692 -0.32451,0.275696 -0.21643,0.165423 -0.27042,0.05523 -0.21643,0.110195 -0.21643,0 -0.86535,-0.05523 -0.81129,-0.330846 -0.70312,-0.496269 -0.59493,-0.661692 z"
       style="fill:#000000;fill-opacity:1;fill-rule:nonzero;stroke:none" />
    <path
       inkscape:connector-curvature="0"
       id="path111"
       d="m 265.22221,85.859105 -0.27042,-0.05523 -0.21643,-0.165423 -0.10809,-0.220651 -0.0542,-0.220651 0.0542,-0.275723 0.10809,-0.22065 0.21643,-0.165423 0.32451,-0.05523 0.86538,0 0,-2.646769 0.10809,-0.330846 0.16226,-0.22065 0.16225,-0.110196 0.21643,-0.05523 0.21643,0.05523 0.16225,0.110196 0.16226,0.165423 0.10809,0.330846 0,2.701918 1.46031,0 0.27042,0.110195 0.16226,0.165423 0.10808,0.220651 0.0542,0.22065 -0.0542,0.220651 -0.10808,0.165423 -0.21643,0.165423 -0.27042,0.110195 -1.40622,0 -0.0542,1.323385 0.0542,1.378533 0,1.378508 0,1.268261 -0.0542,0.385969 -0.16226,0.220651 -0.21642,0.165423 -0.21643,0.05523 -0.21643,-0.05523 -0.16226,-0.165423 -0.16225,-0.220651 -0.0542,-0.330846 -0.0542,-1.323384 0,-1.378508 0,-2.701918 -0.91947,0 0,0 z"
       style="fill:#000000;fill-opacity:1;fill-rule:nonzero;stroke:none" />
    <path
       inkscape:connector-curvature="0"
       id="path113"
       d="m 272.0911,91.318065 -0.0542,0.330846 -0.16226,0.220651 -0.16226,0.165423 -0.21643,0 -0.21642,0 -0.21643,-0.165423 -0.16226,-0.165423 -0.0542,-0.330846 0,-9.429112 0.0542,-0.275723 0.16226,-0.22065 0.16226,-0.110196 0.21642,-0.05523 0.21643,0 0.16226,0.165423 0.16226,0.165423 0.10808,0.275722 0,3.970152 0.21643,-0.22065 0.21643,-0.165424 0.32451,-0.22065 0.27045,-0.165423 0.27042,-0.110196 0.32451,-0.110195 0.32451,-0.05523 0.27042,0 0.27045,0.05523 0.27042,0.110195 0.43268,0.165423 0.3786,0.330846 0.32452,0.330847 0.21643,0.441119 0.21642,0.441119 0.10809,0.496269 0.10809,0.496269 0.0542,0.496269 0,0.827115 0,0.771992 0,0.771965 0,0.827115 -0.0542,0.330846 -0.16226,0.220651 -0.16226,0.165423 -0.21643,0.05523 -0.21642,-0.05523 -0.21643,-0.110195 -0.16226,-0.220651 -0.0542,-0.330846 0,-1.59908 0,-0.771992 -0.0542,-0.827115 -0.0542,-0.606542 -0.16226,-0.496269 -0.21643,-0.496269 -0.43267,-0.330846 -0.37861,-0.110195 -0.32451,0.110195 -0.32452,0.110195 -0.32451,0.275696 -0.21643,0.220651 -0.27045,0.330846 -0.21642,0.330846 -0.21643,0.275723 -0.0542,0.05523 0,0.05523 -0.0542,0.05523 -0.0542,0 0,3.30846 0,0 z"
       style="fill:#000000;fill-opacity:1;fill-rule:nonzero;stroke:none" />
    <path
       inkscape:connector-curvature="0"
       id="path115"
       d="m 284.42263,91.097492 0,0 -0.0542,0 0.10808,0.220651 -0.0542,0.220651 -0.0542,0.220651 -0.10808,0.110195 -0.16226,0.110195 -0.16226,0.05523 -0.21642,0 -0.27042,-0.110195 -0.10809,-0.110195 -0.16226,-0.220651 -0.10808,-0.165423 -0.10809,-0.165423 -0.27042,0.275696 -0.37861,0.275722 -0.32451,0.165423 -0.37861,0.05523 -0.59493,0.05523 -0.64903,-0.05523 -0.59494,-0.05523 -0.54086,-0.385995 -0.37861,-0.330846 -0.32451,-0.496269 -0.16226,-0.496269 -0.10809,-0.551419 -0.0542,-0.551393 0.0542,-0.551419 0.10809,-0.551418 0.16226,-0.551393 0.0542,-0.220651 0.16225,-0.220651 0.10809,-0.220651 0.10809,-0.275722 0.16225,-0.330846 0.21643,-0.275696 0.21643,-0.275697 0.27042,-0.220651 0.21643,-0.165423 0.21642,-0.165423 0.16226,-0.165423 0.21643,-0.110195 0.16226,-0.110195 0.27044,-0.110195 0.27042,-0.110195 0.32452,-0.05523 0.32451,-0.110195 0.32451,0 0.32452,0.05523 0.27042,0.05523 0.21643,0 0.21642,0.110196 0.16226,0.22065 0.16226,0.275697 0,1.157961 -0.0542,1.157961 0.0542,1.157961 0.10808,1.157961 0.0542,0.165423 0.0542,0.220651 0.21642,0.385996 0.10809,0.220651 0.10809,0.165423 0.0542,0.165423 0.0542,0.05523 z m -2.00118,-1.157961 0.0542,0 0,-0.05523 0.0542,0 0,0 -0.16225,-1.047688 -0.0542,-1.047661 0.0542,-1.102838 0,-0.937388 -0.16226,0 -0.16226,0.05523 -0.16226,0 -0.16225,0.110195 -0.16226,0 -0.10809,0.05523 -0.16225,0.05523 -0.0542,0.05523 -0.43271,0.275697 -0.32451,0.330846 -0.32451,0.385995 -0.21643,0.49627 -0.21643,0.441119 -0.10809,0.496269 -0.10808,0.551419 0,0.496269 0,0.165423 0.0542,0.110195 0.0542,0.110195 0.0542,0.165423 0.0542,0.05523 0.10809,0.110195 0.0542,0.110195 0.10808,0.110195 0.16226,0.05523 0.10809,0.05523 0.27042,0.110195 0.27042,0 0.27044,0 0.21643,0 0.27045,-0.05523 0.21642,-0.165423 0.21643,-0.165423 0.21643,-0.22065 0.21643,-0.165423 z"
       style="fill:#000000;fill-opacity:1;fill-rule:nonzero;stroke:none" />
    <path
       inkscape:connector-curvature="0"
       id="path117"
       d="m 285.77478,85.859105 -0.32451,-0.05523 -0.16226,-0.165423 -0.16226,-0.220651 0,-0.220651 0,-0.275723 0.16226,-0.22065 0.21643,-0.165423 0.32451,-0.05523 0.86538,0 0,-2.646769 0.10809,-0.330846 0.10808,-0.22065 0.21643,-0.110196 0.21643,-0.05523 0.16225,0.05523 0.16226,0.110196 0.16226,0.165423 0.10808,0.330846 0,2.701918 1.51441,0 0.27042,0.110195 0.16226,0.165423 0.10809,0.220651 0,0.22065 0,0.220651 -0.16226,0.165423 -0.16226,0.165423 -0.27044,0.110195 -1.46032,0 0,1.323385 0,1.378533 0,1.378508 0.0542,1.268261 -0.0542,0.385969 -0.16225,0.220651 -0.21643,0.165423 -0.21643,0.05523 -0.21643,-0.05523 -0.21643,-0.165423 -0.16225,-0.220651 -0.0542,-0.330846 0,-1.323384 0,-1.378508 0,-2.701918 -0.91945,0 0,0 z"
       style="fill:#000000;fill-opacity:1;fill-rule:nonzero;stroke:none" />
    <path
       inkscape:connector-curvature="0"
       id="path119"
       d="m 300.64833,89.994681 0.21643,-0.165423 0.27042,-0.05523 0.21643,0.05523 0.21642,0.110195 0.10809,0.220651 0.0542,0.275696 -0.0542,0.275696 -0.16226,0.275723 -0.54086,0.551393 -0.64903,0.275722 -0.70312,0.220651 -0.64903,-0.05523 -0.64903,-0.165423 -0.59493,-0.441145 -0.54087,-0.496269 -0.32451,-0.771966 -0.16226,-0.441119 -0.0542,-0.496269 -0.10809,-0.496269 0.0542,-0.496269 0.0542,-0.827115 0.27042,-0.827116 0.32451,-0.771991 0.48677,-0.661692 0.54087,-0.551393 0.70309,-0.330846 0.32452,-0.110195 0.81128,0 0.37861,0.110195 0.43268,0.165423 0.32451,0.220651 0.32451,0.220651 0.32452,0.330846 0.16226,0.275696 0,0.275697 0,0.220651 -0.10809,0.165423 -0.16226,0.165423 -0.21643,0.05523 -0.21642,0 -0.27045,-0.110195 -0.48677,-0.496269 -0.48677,-0.165423 -0.48677,-0.05523 -0.43268,0.165423 -0.37861,0.220651 -0.32451,0.441146 -0.27042,0.441119 -0.21643,0.551419 -0.16226,0.551392 0,0.606569 0,0.606542 0.21643,0.551419 0.21643,0.441119 0.27042,0.275697 0.32451,0.22065 0.37861,0.110196 0.32452,0 0.37858,-0.110196 0.37861,-0.22065 0.32451,-0.330846 z"
       style="fill:#000000;fill-opacity:1;fill-rule:nonzero;stroke:none" />
    <path
       inkscape:connector-curvature="0"
       id="path121"
       d="m 302.81177,87.678759 0.21642,-0.551419 0.21643,-0.496269 0.27042,-0.496269 0.32451,-0.44112 0.37861,-0.385995 0.37861,-0.330846 0.48677,-0.275697 0.54084,-0.165423 0.4327,-0.110195 0.7572,0.110195 0.32451,0.110195 0.64903,0.44112 0.43267,0.661692 0.37861,0.716842 0.16226,0.882238 0.10809,0.827115 -0.16226,0.827115 -0.27042,0.992539 -0.54087,0.882264 -0.32451,0.385996 -0.75719,0.661692 -0.43268,0.220651 -0.64903,0.220651 -0.59496,-0.05523 -0.59493,-0.110195 -0.54086,-0.275723 -0.43268,-0.385969 -0.37861,-0.551419 -0.27042,-0.606542 -0.16226,-0.716842 -0.0542,-0.441119 0,-0.441146 0,-0.441119 0.10809,-0.44112 0,-0.22065 z m 1.24396,0.385969 -0.0542,0.330846 -0.0542,0.330846 0,0.330846 0.0542,0.330846 0.0542,0.441146 0.16225,0.385969 0.27042,0.330846 0.27045,0.220651 0.32451,0.165423 0.37859,0.05523 0.3786,-0.05523 0.37861,-0.220651 0.48677,-0.385969 0.32452,-0.496269 0.27042,-0.551419 0.16225,-0.606542 0.10809,-0.551419 -0.0542,-0.551419 -0.0542,-0.551393 -0.21643,-0.496269 -0.32451,-0.385995 -0.37859,-0.220651 -0.4327,-0.110195 -0.54084,0.165423 -0.59496,0.330846 -0.37858,0.551418 -0.32451,0.551393 -0.21643,0.661692 z"
       style="fill:#000000;fill-opacity:1;fill-rule:nonzero;stroke:none" />
    <path
       inkscape:connector-curvature="0"
       id="path123"
       d="m 316.38726,90.656373 0.16226,0.220651 0,0.330846 0,0.220651 -0.16226,0.22065 -0.16226,0.165423 -0.21643,0 -0.32451,-0.05523 -0.27042,-0.275723 -0.27042,-0.385969 -0.16226,-0.385996 -0.4327,0.441119 -0.48677,0.330846 -0.59493,0.275723 -0.54087,0.05523 -0.43268,0 -0.3786,-0.165423 -0.37859,-0.165423 -0.32451,-0.275722 -0.32451,-0.275696 -0.27045,-0.385996 -0.21643,-0.330846 -0.16225,-0.441119 -0.10809,-0.44112 -0.0542,-0.496269 -0.0542,-0.551419 0,-0.551418 0,-0.716816 0.0542,-0.661692 0,-0.606569 0,-0.551392 0.10808,-0.330846 0.16226,-0.165423 0.16226,-0.165423 0.21643,0 0.16225,0 0.21643,0.110195 0.16226,0.220651 0.10808,0.275696 -0.0542,0.771966 0,0.771991 0,0.716816 0,0.827115 0.0542,0.882265 0.32452,0.661692 0.16226,0.275696 0.48677,0.330846 0.32451,0 0.21643,0 0.27044,-0.05523 0.21643,-0.110195 0.21643,-0.165423 0.16226,-0.220651 0.21642,-0.165423 0.16226,-0.220651 0.10809,-0.220651 0.0542,-0.05523 0.0542,0 0.0542,-0.05523 0,-0.05523 -0.0542,-0.827115 -0.0542,-0.827115 0,-0.992538 0.0542,-0.49627 0.0542,-0.441119 0.10809,-0.385996 0.10808,-0.275696 0.21643,-0.220651 0.27045,-0.05523 0.21642,0.05523 0.16226,0.165423 0.16226,0.220651 0.0542,0.330846 0,0.385996 -0.0542,0.551393 -0.0542,0.551418 0,0.606543 0,0.496269 0,0.441145 0.0542,0.496269 0.0542,0.44112 0.10808,0.385995 0.10809,0.38597 0.10809,0.330846 0.16225,0.275722 z"
       style="fill:#000000;fill-opacity:1;fill-rule:nonzero;stroke:none" />
    <path
       inkscape:connector-curvature="0"
       id="path125"
       d="m 323.47247,91.318065 -0.0542,0.330846 -0.16225,0.220651 -0.21643,0.165423 -0.21643,0.05523 -0.21643,0 -0.16225,-0.165423 -0.16226,-0.220651 -0.10809,-0.330846 0,-0.771992 0,-0.771965 0,-1.543957 0,-1.102811 0,-0.606543 -0.0542,-0.551418 -0.10808,-0.220651 -0.16226,-0.05523 -0.16226,-0.05523 -0.21643,0 -0.48677,0 -0.54086,0.275696 -0.43268,0.275723 -0.37861,0.496269 -0.16226,0.275696 -0.10808,0.165423 -0.0542,0.220651 -0.0542,0.385996 0,1.709354 0,0.827115 0,0.882264 -0.0542,0.385996 -0.16226,0.220651 -0.16226,0.165423 -0.21643,0 -0.21642,0 -0.21643,-0.165423 -0.16226,-0.220651 -0.0542,-0.330846 0,-1.543957 0,-0.771965 0,-0.771992 0,-1.488807 0,-1.59908 0.0542,-0.330846 0.16226,-0.165423 0.16226,-0.165423 0.21642,0 0.21643,0 0.16226,0.165423 0.16226,0.165423 0.10808,0.275696 0,0.165423 0.48677,-0.38597 0.54087,-0.275722 0.54086,-0.220651 0.59494,-0.05523 0.54086,0.05523 0.48677,0.220651 0.48677,0.385996 0.37859,0.551418 0.0542,0.275697 0.0542,0.275696 0.0542,0.330846 0,0.385996 0,0.330846 0,0.385996 0,0.385969 0,0.330846 0,1.985077 0,1.157961 0,0 z"
       style="fill:#000000;fill-opacity:1;fill-rule:nonzero;stroke:none" />
    <path
       inkscape:connector-curvature="0"
       id="path127"
       d="m 325.47365,85.859105 -0.32451,-0.05523 -0.21643,-0.165423 -0.10809,-0.220651 0,-0.220651 0,-0.275723 0.16226,-0.22065 0.21643,-0.165423 0.32451,-0.05523 0.86536,0 0,-2.646769 0.0542,-0.330846 0.16225,-0.22065 0.21643,-0.110196 0.16226,-0.05523 0.21643,0.05523 0.16225,0.110196 0.16226,0.165423 0.10809,0.330846 0,2.701918 1.51438,0 0.21643,0.110195 0.21642,0.165423 0.10809,0.220651 0,0.22065 0,0.220651 -0.16226,0.165423 -0.16225,0.165423 -0.27042,0.110195 -1.46032,0 0,1.323385 0,1.378533 0,1.378508 0,1.268261 0,0.385969 -0.21642,0.220651 -0.16226,0.165423 -0.21643,0.05523 -0.21643,-0.05523 -0.21642,-0.165423 -0.16226,-0.220651 -0.0542,-0.330846 0,-1.323384 0,-1.378508 0,-2.701918 -0.91945,0 0,0 z"
       style="fill:#000000;fill-opacity:1;fill-rule:nonzero;stroke:none" />
  </g>
</svg>
