<?xml version="1.0" encoding="UTF-8" standalone="no"?>
<svg
   xmlns:dc="http://purl.org/dc/elements/1.1/"
   xmlns:cc="http://creativecommons.org/ns#"
   xmlns:rdf="http://www.w3.org/1999/02/22-rdf-syntax-ns#"
   xmlns:svg="http://www.w3.org/2000/svg"
   xmlns="http://www.w3.org/2000/svg"
   xmlns:sodipodi="http://sodipodi.sourceforge.net/DTD/sodipodi-0.dtd"
   xmlns:inkscape="http://www.inkscape.org/namespaces/inkscape"
   version="1.0"
   width="600mm"
   height="600mm"
   id="svg2"
   inkscape:version="0.91 r13725"
   viewBox="0 0 600 600"
   sodipodi:docname="Head.svg">
  <metadata
     id="metadata131">
    <rdf:RDF>
      <cc:Work
         rdf:about="">
        <dc:format>image/svg+xml</dc:format>
        <dc:type
           rdf:resource="http://purl.org/dc/dcmitype/StillImage" />
        <dc:title></dc:title>
      </cc:Work>
    </rdf:RDF>
  </metadata>
  <sodipodi:namedview
     pagecolor="#ffffff"
     bordercolor="#666666"
     borderopacity="1"
     objecttolerance="10"
     gridtolerance="10"
     guidetolerance="10"
     inkscape:pageopacity="0"
     inkscape:pageshadow="2"
     inkscape:window-width="1498"
     inkscape:window-height="911"
     id="namedview129"
     inkscape:document-units="mm"
     showgrid="false"
     inkscape:zoom="0.16"
     inkscape:cx="1395.6949"
     inkscape:cy="1556.4016"
     inkscape:window-x="25"
     inkscape:window-y="9"
     inkscape:window-maximized="0"
     inkscape:current-layer="svg2"
     inkscape:showpageshadow="false" />
  <defs
     id="defs4">
    <pattern
       id="WMFhbasepattern"
       patternUnits="userSpaceOnUse"
       width="6"
       height="6"
       x="0"
       y="0" />
  </defs>
  <g
     id="g4275"
     transform="matrix(4.3779654,0,0,4.1253007,-8.8110529,-54.050252)">
    <path
       inkscape:connector-curvature="0"
       id="path7"
       d="m 112.90726,111.59488 2.66889,8.15353 -0.50042,5.60555"
       style="fill:none;stroke:#000000;stroke-width:1.51495481px;stroke-linecap:round;stroke-linejoin:miter;stroke-miterlimit:4;stroke-dasharray:none;stroke-opacity:1" />
    <path
       inkscape:connector-curvature="0"
       id="path9"
       d="m 80.046636,104.88518 31.025774,0.33987"
       style="fill:none;stroke:#000000;stroke-width:3.02990961px;stroke-linecap:round;stroke-linejoin:miter;stroke-miterlimit:4;stroke-dasharray:none;stroke-opacity:1" />
    <path
       inkscape:connector-curvature="0"
       id="path11"
       d="m 40.430401,115.75655 1.167636,-0.5096 2.168466,-1.35889 1.501247,-0.42469 1.751454,-0.33987 2.502078,0 2.251871,0.2548 3.336106,1.27399 0.333623,0.16973 0.917428,0.42469 1.417842,1.27399 1.83486,2.37809 1.167634,1.44388"
       style="fill:none;stroke:#000000;stroke-width:0.92580569px;stroke-linecap:butt;stroke-linejoin:miter;stroke-miterlimit:4;stroke-dasharray:none;stroke-opacity:1" />
    <path
       inkscape:connector-curvature="0"
       id="path13"
       d="m 46.685596,118.89907 0.333625,1.01919 -0.333625,1.61373 -0.583818,0.42466 -0.750624,0.0851 -1.334443,-0.93425 -0.500416,-0.93429 -0.333623,-1.01919 0.333623,-1.61369 0.58382,-0.42469 0.667219,-0.0851 1.417847,1.01919 0.500415,0.84934 z"
       style="fill:#000000;fill-opacity:1;fill-rule:nonzero;stroke:#000000;stroke-width:0.58914906px;stroke-linecap:butt;stroke-linejoin:miter;stroke-miterlimit:4;stroke-dasharray:none;stroke-opacity:1" />
    <path
       inkscape:connector-curvature="0"
       id="path15"
       d="m 56.276895,119.66346 0.16679,0.7644 -1.000831,1.69864 -1.084234,0.67948 -1.084236,0.59451 -1.501247,0.0851 -0.667219,-0.2548 -0.166792,-0.2548 -0.166792,-0.76439 1.084236,-1.69864 1.000831,-0.67945 1.084234,-0.59454 1.501247,-0.16973 0.66722,0.33986 0.166793,0.2548 z"
       style="fill:#000000;fill-opacity:1;fill-rule:nonzero;stroke:#000000;stroke-width:0.25249246px;stroke-linecap:butt;stroke-linejoin:miter;stroke-miterlimit:4;stroke-dasharray:none;stroke-opacity:1" />
    <path
       inkscape:connector-curvature="0"
       id="path17"
       d="m 37.2611,74.64917 -5.504572,-0.254798 -3.669714,0.254798 -3.169297,1.189043 -2.919093,2.463034"
       style="fill:none;stroke:#000000;stroke-width:3.02990961px;stroke-linecap:round;stroke-linejoin:miter;stroke-miterlimit:4;stroke-dasharray:none;stroke-opacity:1" />
    <path
       inkscape:connector-curvature="0"
       id="path19"
       d="m 71.372766,77.451947 3.502909,0.169731 4.08673,1.019194 3.502909,2.038383 3.252702,3.482225"
       style="fill:none;stroke:#000000;stroke-width:3.70322275px;stroke-linecap:round;stroke-linejoin:miter;stroke-miterlimit:4;stroke-dasharray:none;stroke-opacity:1" />
    <path
       inkscape:connector-curvature="0"
       id="path21"
       d="m 44.850739,141.32129 -2.251871,-5.6905 -0.08341,-0.8493 0.250208,-1.69868 0.750623,-1.01919 0.417016,-0.42465 1.084231,-0.84934 1.251039,-0.42465 1.084235,-0.16973 2.335274,-0.33987 1.251039,0.16973 1.167635,0.0851 2.585483,0.5096 1.334439,0.84934 1.918262,1.18904 1.918258,1.52879 1.251039,1.10414 1.668051,1.78358 0.667224,1.1041 0.250208,0.5096 -6.755611,2.37813 -7.673042,2.46303 -1.334439,0.42468 -1.751455,0.42466 -1.334444,-3.05758 z"
       style="fill:#000000;fill-opacity:1;fill-rule:evenodd;stroke:#000000;stroke-width:0.67331326px;stroke-linecap:butt;stroke-linejoin:miter;stroke-miterlimit:4;stroke-dasharray:none;stroke-opacity:1" />
    <path
       inkscape:connector-curvature="0"
       id="path23"
       d="m 46.935804,140.5569 0.750624,-1.35894 1.000831,-1.27399 0.417012,-0.42465 1.918258,-1.78359 1.084236,-0.33986 1.251039,-0.2548 2.335275,0.0851 1.251039,0.16974 1.417842,0.42469 2.168467,1.61369 1.000832,0.84934 -15.09587,5.09596 0.250207,-1.44384 0.250208,-1.35894 z"
       style="fill:#ffffff;fill-opacity:1;fill-rule:evenodd;stroke:#ffffff;stroke-width:0.42082077px;stroke-linecap:butt;stroke-linejoin:miter;stroke-miterlimit:4;stroke-dasharray:none;stroke-opacity:1" />
    <path
       inkscape:connector-curvature="0"
       id="path25"
       d="m 19.746553,109.6414 -4.003325,6.70969 -1.334439,2.63293 -0.667223,2.63288 0.250208,3.73706 0.917431,3.99183 1.584647,3.05757 2.668886,3.73703 2.33527,2.12333 3.419509,2.80277 3.91992,2.46304 3.169299,1.69868 2.085067,0.76438 3.336105,1.86851 4.58714,4.07677 2.25187,2.20827 3.002494,1.8685 2.835691,1.18908 4.170128,0 14.512054,-4.07677 13.344418,-4.50146 14.428648,-7.0494 10.175119,-6.28501 3.0859,-2.71787"
       style="fill:none;stroke:#000000;stroke-width:1.51495481px;stroke-linecap:round;stroke-linejoin:miter;stroke-miterlimit:4;stroke-dasharray:none;stroke-opacity:1" />
    <path
       inkscape:connector-curvature="0"
       id="path27"
       d="m 107.90311,131.29922 6.25519,2.12333 3.83652,0.16973 4.75395,-0.84933 3.3361,-1.6137 3.25271,-2.97267 1.91826,-3.99182 0.66722,-3.39732 0.0834,-3.22743 -0.33363,-6.20009 -1.00083,-2.88769 -1.50124,-2.03838 -2.25187,-1.78359 -3.83653,-1.35893 -6.25519,0.33986 -5.08756,2.80278 -1.33444,1.01919"
       style="fill:none;stroke:#000000;stroke-width:1.51495481px;stroke-linecap:round;stroke-linejoin:miter;stroke-miterlimit:4;stroke-dasharray:none;stroke-opacity:1" />
    <path
       inkscape:connector-curvature="0"
       id="path29"
       d="m 113.32428,110.57568 2.75228,-1.10413 4.42034,1.10413 2.08506,3.99182 -0.41701,4.07677 -2.41867,3.90692 -4.50374,3.48222"
       style="fill:none;stroke:#000000;stroke-width:1.51495481px;stroke-linecap:round;stroke-linejoin:miter;stroke-miterlimit:4;stroke-dasharray:none;stroke-opacity:1" />
    <path
       inkscape:connector-curvature="0"
       id="path31"
       d="m 126.33508,104.88518 3.58632,-6.879544 4.08672,-8.068589 2.08507,-12.145396 -0.25021,-11.63576 -0.83402,-7.643939 -1.91827,-9.93712 L 124.50023,35.580136 107.23589,23.604631 98.979031,17.06483 83.883158,15.111353 70.53874,14.856555 l -5.587972,1.698679 -1.751455,0.169731 -5.421172,0 -8.090051,-0.679447 1.251039,0.679447 4.920753,2.293183 4.420338,1.528788 -1.91826,1.104136 -7.839846,2.972631 -7.256027,4.586363 -4.086725,4.586364 -0.834026,4.161714 4.50374,-5.52065 9.257689,-5.605556 7.756442,-1.953437 -6.17179,1.698639 -1.417849,0.339864 -4.170128,3.737024 -6.422,7.304236 0.417013,-0.934287 -4.587145,7.898737 -0.667219,6.964491 4.837351,-6.030205 3.836517,-2.802778 5.838185,-3.906915 5.671376,-1.104138 -1.084231,3.567172 0,1.104137 0.166791,2.378128 0.166792,1.528788 0.417016,0.254797 1.918259,-3.142521 2.668881,-3.906916 1.918263,-1.189043 19.015794,-7.983683 11.843167,2.887724 6.1718,2.038384 1.91825,2.208235 3.0025,2.632926 1.16763,1.273989 0.41702,0.679449 -2.41868,-0.8493 -3.58631,-1.613734 -4.253532,0.339864 3.252702,1.443841 2.83569,2.208277 4.83735,7.049397 5.33777,10.531662 1.00083,9.087781 -2.16847,10.78646 -1.50125,7.049397 -0.58382,5.011014 0,4.586363 0.58382,3.057573 0.16679,2.46308 2.33527,2.46303 3.66972,-2.37813 4.75395,-0.42465 2.75229,0.16973 2.91908,1.86854"
       style="fill:none;stroke:none" />
    <path
       inkscape:connector-curvature="0"
       id="path33"
       d="m 126.33508,104.88518 3.58632,-6.879544 4.08672,-8.068589 2.08507,-12.145396 -0.25021,-11.63576 -0.83402,-7.643939 -1.91827,-9.93712 L 124.50023,35.580136 107.23589,23.604631 98.979031,17.06483 83.883158,15.111353 70.53874,14.856555 l -5.587972,1.698679 -1.751455,0.169731 -5.421172,0 -8.090051,-0.679447 1.251039,0.679447 4.920753,2.293183 4.420338,1.528788 -1.91826,1.104136 -7.839846,2.972631 -7.256027,4.586363 -4.086725,4.586364 -0.834026,4.161714 4.50374,-5.52065 9.257689,-5.605556 7.756442,-1.953437 -6.17179,1.698639 -1.417849,0.339864 -4.170128,3.737024 -6.422,7.304236 0.417013,-0.934287 -4.587145,7.898737 -0.667219,6.964491 4.837351,-6.030205 3.836517,-2.802778 5.838185,-3.906915 5.671376,-1.104138 -1.084231,3.567172 0,1.104137 0.166791,2.378128 0.166792,1.528788 0.417016,0.254797 1.918259,-3.142521 2.668881,-3.906916 1.918263,-1.189043 19.015794,-7.983683 11.843167,2.887724 6.1718,2.038384 1.91825,2.208235 3.0025,2.632926 1.16763,1.273989 0.41702,0.679449 -2.41868,-0.8493 -3.58631,-1.613734 -4.253532,0.339864 3.252702,1.443841 2.83569,2.208277 4.83735,7.049397 5.33777,10.531662 1.00083,9.087781 -2.16847,10.78646 -1.50125,7.049397 -0.58382,5.011014 0,4.586363 0.58382,3.057573 0.16679,2.46308 2.33527,2.46303 3.66972,-2.37813 4.75395,-0.42465 2.75229,0.16973 2.91908,1.86854"
       style="fill:#000000;fill-opacity:1;stroke:#000000;stroke-width:0.42082077px;stroke-linecap:butt;stroke-linejoin:miter;stroke-miterlimit:4;stroke-dasharray:none;stroke-opacity:1" />
    <path
       inkscape:connector-curvature="0"
       id="path35"
       d="m 19.829956,109.55649 1.167636,-3.22747 0.166793,-7.55899 -2.001663,-6.454895 -1.751456,-4.416471 -1.584647,-4.501458 -0.834026,-5.180865 -0.166793,-6.115151 0.667221,-6.11515 1.834857,-6.030246 9.007481,-13.75909 4.837353,-5.435663 5.83818,-4.331565 1.501247,-1.189085"
       style="fill:none;stroke:#000000;stroke-width:1.51495481px;stroke-linecap:round;stroke-linejoin:miter;stroke-miterlimit:4;stroke-dasharray:none;stroke-opacity:1" />
    <path
       inkscape:connector-curvature="0"
       id="path37"
       d="m 56.276895,19.867609 -9.424494,2.123288 -23.102523,11.296057 -5.754779,7.38914 -6.171792,7.983683 -2.835691,6.879546 11.009145,-10.701515 -9.674701,13.589199 -0.6672191,5.180905 11.7597671,-16.222125 -4.920756,8.91793 0.333623,4.671269 6.505403,-10.106973 2.502078,-4.246619 5.337769,-6.115151 7.339426,-5.52065 3.502909,-4.161673 1.417847,-1.783586 5.671377,-3.737064 4.336936,-1.953437 4.170129,-1.358936 2.418674,-1.358895 -2.085063,-1.104138 -1.668055,0.339865 z"
       style="fill:#000000;fill-opacity:1;fill-rule:evenodd;stroke:#000000;stroke-width:0.42082077px;stroke-linecap:butt;stroke-linejoin:miter;stroke-miterlimit:4;stroke-dasharray:none;stroke-opacity:1" />
    <path
       inkscape:connector-curvature="0"
       id="path39"
       d="m 19.663153,93.759016 -4.670548,0.424651 -3.336102,1.443841 -2.2518699,2.208277 -1.4178484,2.887685 -0.4170109,2.88772 0.1667923,2.97263 0.6672188,2.03838 1.251039,1.52879 1.5846511,2.37813 2.418674,2.46303 1.501247,0.93429"
       style="fill:none;stroke:#000000;stroke-width:1.59911883px;stroke-linecap:round;stroke-linejoin:miter;stroke-miterlimit:4;stroke-dasharray:none;stroke-opacity:1" />
    <path
       inkscape:connector-curvature="0"
       id="path41"
       d="m 18.495514,110.83048 -3.502909,-2.37813 -0.917428,-1.18904 -0.667219,-1.18908 -0.166792,-0.93425 -0.250208,-1.44384 0.333623,-1.27399 0.750624,-1.01919 1.084236,-0.59455 1.000831,-0.0851 1.251039,0.0851 1.918258,0.2548 1.751454,0.16973 0.166793,3.31238 -1.000832,2.63292 -1.000831,2.12329 -0.750623,1.52879 z"
       style="fill:none;stroke:#000000;stroke-width:1.17829812px;stroke-linecap:round;stroke-linejoin:miter;stroke-miterlimit:4;stroke-dasharray:none;stroke-opacity:1" />
    <path
       inkscape:connector-curvature="0"
       id="path43"
       d="M 23.916686,91.465835 45.18435,94.098721 43.849907,108.70715 22.498839,106.07423 23.916686,91.465835 Z"
       style="fill:#000000;fill-opacity:1;fill-rule:nonzero;stroke:#000000;stroke-width:1.43079066px;stroke-linecap:butt;stroke-linejoin:miter;stroke-miterlimit:4;stroke-dasharray:none;stroke-opacity:1" />
    <path
       inkscape:connector-curvature="0"
       id="path45"
       d="M 59.195988,95.7974 82.715522,97.665892 81.881496,113.54831 58.445365,111.67978 59.195988,95.7974 Z"
       style="fill:#000000;fill-opacity:1;fill-rule:nonzero;stroke:#000000;stroke-width:1.51495481px;stroke-linecap:butt;stroke-linejoin:miter;stroke-miterlimit:4;stroke-dasharray:none;stroke-opacity:1" />
    <path
       inkscape:connector-curvature="0"
       id="path47"
       d="m 59.195988,104.71533 -5.838184,-3.99186 -4.837353,-0.764397 -5.504572,1.698677"
       style="fill:none;stroke:#000000;stroke-width:1.9357754px;stroke-linecap:round;stroke-linejoin:miter;stroke-miterlimit:4;stroke-dasharray:none;stroke-opacity:1" />
    <path
       inkscape:connector-curvature="0"
       id="path49"
       d="M 25.668141,100.89336 23.49967,98.854977 21.331203,96.901498"
       style="fill:none;stroke:#000000;stroke-width:3.11407399px;stroke-linecap:round;stroke-linejoin:miter;stroke-miterlimit:4;stroke-dasharray:none;stroke-opacity:1" />
  </g>
</svg>
